<svg width="120" height="29" viewBox="0 0 120 29" fill="none" xmlns="http://www.w3.org/2000/svg">
    <path d="M107.377 19.8808C107.339 19.8722 107.298 19.8491 107.275 19.8173C107.243 19.7161 107.197 19.5659 107.293 19.4821C107.348 19.4185 107.449 19.4416 107.521 19.4127C107.782 19.3896 108.031 19.3434 108.275 19.2798C108.509 19.2163 108.417 18.9504 108.457 18.777C108.449 18.1356 108.48 17.5085 108.472 16.8584V15.3154C108.417 15.1189 108.533 14.7924 108.252 14.7433C107.985 14.7028 107.701 14.6797 107.426 14.6652C107.353 14.6479 107.284 14.6479 107.243 14.5785C107.22 14.4687 107.206 14.3214 107.307 14.2405C107.504 14.1942 107.733 14.2029 107.944 14.1856C108.33 14.1625 108.724 14.1307 109.097 14.0931C109.147 14.0613 109.216 14.044 109.263 14.0613C109.373 14.0469 109.506 14.0469 109.602 14.1076C109.642 14.1538 109.657 14.2029 109.657 14.2665C109.671 14.5872 109.688 14.8675 109.688 15.1911C109.712 15.2229 109.697 15.2865 109.752 15.3009C109.917 15.1507 109.946 14.934 110.08 14.7693C110.369 14.2578 110.905 14.0469 111.47 14.0469C112.168 14.0469 112.869 14.463 113.104 15.1276C113.261 15.4107 113.2 15.7864 113.206 16.1158C113.168 17.0867 113.174 18.0518 113.151 19.0371C113.127 19.3116 113.408 19.2943 113.582 19.3347C113.77 19.3665 113.953 19.3781 114.147 19.4301C114.257 19.5081 114.225 19.6901 114.193 19.7999C114.162 19.8462 114.118 19.8664 114.069 19.8837H110.995C110.87 19.8548 110.894 19.6988 110.879 19.5948C110.885 19.5254 110.902 19.4532 110.981 19.4301C111.256 19.3665 111.577 19.3983 111.821 19.2567C111.853 19.2076 111.876 19.1556 111.884 19.092C111.893 17.8466 111.931 16.6157 111.899 15.3761C111.908 15.064 111.766 14.7433 111.476 14.6103C111.224 14.4687 110.885 14.5468 110.691 14.7346C109.978 15.6043 109.654 16.6388 109.66 17.8062C109.654 18.2772 109.636 18.7077 109.654 19.17C109.741 19.3665 109.981 19.3492 110.172 19.381C110.343 19.4127 110.604 19.4012 110.627 19.5774C110.645 19.6815 110.645 19.7884 110.558 19.852L110.479 19.8837H107.377V19.8808Z" fill="black"/>
    <path d="M95.8107 19.888L95.9904 19.862C96.0686 19.8389 96.0686 19.7522 96.086 19.6886C96.0686 19.235 96.1004 18.7958 96.086 18.3334V16.0998C96.0628 16.0073 96.0918 15.8802 96.0541 15.7964C96.0048 15.7242 95.9208 15.7184 95.8397 15.7242C95.7847 15.7328 95.7528 15.7791 95.7441 15.8282C95.6572 16.7297 95.4052 17.5764 94.959 18.3334C94.6606 18.8738 94.1102 19.3216 93.4989 19.391H90.8509C90.8046 19.3765 90.7408 19.3823 90.709 19.3274C90.7003 19.2581 90.7264 19.1858 90.764 19.1309L91.6534 17.7208C91.7722 17.5388 91.8823 17.3539 92.0069 17.1718C92.7225 16.0911 93.4293 15.0105 94.142 13.9269C94.6925 13.0658 95.298 12.2249 95.8397 11.3639C95.9005 11.2309 96.0541 11.0691 96.086 10.9218C96.0715 10.89 96.0483 10.8582 96.0077 10.8524C95.4776 10.8438 94.4028 10.8438 94.4028 10.8438L93.6379 10.8495H91.4217C91.4217 10.8495 90.1672 10.8553 89.724 10.8495C89.6457 10.8813 89.6486 10.9911 89.6255 11.0691C89.6168 11.5546 89.6255 11.9851 89.6255 12.4734V14.0858L89.64 14.1725C89.6776 14.2505 89.7645 14.2361 89.837 14.2361C89.892 14.2216 89.9152 14.1725 89.9384 14.1349C90.0166 13.5859 90.1498 13.06 90.4106 12.5833C90.6945 12.066 91.132 11.439 91.7693 11.3379C92.4356 11.3379 93.1193 11.2974 93.7654 11.3696C93.8204 11.3841 93.8494 11.439 93.8204 11.4939C93.3337 12.3463 92.7601 13.1785 92.2242 14.0165C91.6274 14.9816 91.0074 15.9293 90.3787 16.8829C89.7906 17.7469 89.2257 18.6224 88.681 19.5095C88.626 19.6106 88.5391 19.6886 88.5391 19.8071C88.5767 19.8938 88.6897 19.8707 88.7592 19.888H95.8078H95.8107Z" fill="black"/>
    <path d="M114.424 19.4065C114.117 19.0222 114.108 18.4501 114.212 17.9733C114.47 17.2827 115.203 16.8522 115.901 16.7655C116.333 16.6701 116.82 16.7019 117.196 16.491C117.59 16.1789 117.472 15.6675 117.486 15.2052C117.454 14.9855 117.408 14.7833 117.298 14.6041C117.054 14.2343 116.55 14.2661 116.165 14.3614C115.899 14.4394 115.632 14.5897 115.435 14.8324C115.412 14.8555 115.418 14.9018 115.426 14.9364C115.49 15.0376 115.591 15.0838 115.655 15.1791C115.829 15.3988 115.806 15.7744 115.673 15.9998C115.516 16.228 115.279 16.3985 114.995 16.3234C114.728 16.283 114.517 16.0489 114.43 15.812C114.265 15.3121 114.554 14.8873 114.853 14.5203C115.589 13.824 116.73 13.6968 117.68 13.9944C118.158 14.1447 118.654 14.5984 118.717 15.1156C118.741 15.3814 118.726 15.6877 118.709 15.9709C118.7 16.9678 118.654 18.0022 118.732 18.9962C118.746 19.1291 118.819 19.2794 118.967 19.3256C119.059 19.3719 119.178 19.3574 119.265 19.2967C119.462 19.1551 119.416 18.8951 119.453 18.6784V17.5659C119.468 17.5255 119.5 17.4792 119.54 17.4619C119.65 17.4619 119.792 17.4388 119.862 17.5486C119.934 17.9011 119.894 18.2854 119.894 18.661C119.87 19.0829 119.853 19.5944 119.398 19.788C119.053 19.944 118.564 19.9758 118.205 19.8342C117.892 19.7157 117.645 19.3719 117.53 19.0829C117.498 19.0453 117.443 19.0193 117.402 19.0511C117.254 19.2245 117.095 19.4297 116.921 19.5684C116.348 20.0162 115.383 20.0769 114.754 19.7157C114.621 19.6377 114.519 19.5308 114.415 19.4123M116.168 19.2794C116.466 19.265 116.718 19.1002 116.944 18.9038C117.417 18.4645 117.486 17.8549 117.454 17.2192C117.44 17.118 117.477 16.9996 117.399 16.9215C117.22 16.9215 117.063 17.0227 116.889 17.0573C116.481 17.0805 116.072 17.144 115.783 17.4561C115.389 17.8317 115.31 18.4674 115.531 18.9529C115.678 19.1725 115.899 19.2996 116.168 19.2823" fill="black"/>
    <path d="M103.112 22.3968C102.625 22.1946 102.075 21.8883 101.846 21.3768C101.777 21.215 101.777 20.9925 101.855 20.8365C102.058 20.5158 102.396 20.2644 102.718 20.091C102.741 20.0679 102.782 20.0534 102.782 20.013C102.712 19.8801 102.553 19.8194 102.443 19.7154C102.159 19.4408 101.994 19.097 101.979 18.704C101.947 18.2186 102.214 17.7707 102.654 17.5366C102.779 17.45 102.953 17.4586 103.054 17.3402C103.077 17.3084 103.045 17.2795 103.031 17.2564C102.504 16.8085 102.237 16.1757 102.434 15.4995C102.66 14.5662 103.596 13.8929 104.523 13.8005C104.914 13.7542 105.276 13.838 105.644 13.9103C105.803 13.8323 105.748 13.6213 105.786 13.4711C105.809 13.2197 105.847 12.9856 106.061 12.8036C106.281 12.6302 106.603 12.5522 106.887 12.6562C107.043 12.7111 107.171 12.8614 107.209 13.0174C107.264 13.159 107.24 13.3324 107.148 13.448C107.046 13.5895 106.872 13.6415 106.699 13.5953C106.574 13.5549 106.423 13.4393 106.394 13.315C106.371 13.2746 106.339 13.2601 106.299 13.2544C106.125 13.315 106.157 13.5289 106.134 13.6849C106.142 13.8901 106.073 14.1328 106.244 14.2715C106.858 14.7482 107.18 15.4562 107.029 16.2132C106.817 17.0194 105.96 17.5598 105.189 17.6696C104.836 17.7389 104.436 17.7158 104.088 17.6609C103.607 17.6696 103.106 17.6782 102.753 17.999C102.637 18.1319 102.582 18.3428 102.643 18.5162C102.776 18.782 103.074 18.8138 103.35 18.8369C104.442 18.8832 105.682 18.5393 106.594 19.1577C107.237 19.6113 107.426 20.3973 107.269 21.1486C107.127 21.8363 106.429 22.3304 105.815 22.5442C105.751 22.576 105.641 22.5269 105.612 22.6049C104.787 22.8014 103.86 22.6598 103.106 22.394M105.612 22.1281C106.108 22.0096 106.696 21.6831 106.759 21.1081C106.829 20.77 106.589 20.5042 106.337 20.3424C105.763 20.0505 105.056 20.0043 104.395 20.0505C103.79 20.1459 103.028 20.0881 102.762 20.7643C102.692 20.929 102.66 21.1399 102.715 21.3277C102.77 21.6167 103.022 21.8854 103.289 22.0096C103.996 22.2755 104.859 22.3073 105.615 22.1281M104.225 17.2072C104.587 17.3719 105.068 17.2997 105.372 17.0714C105.693 16.8547 105.835 16.5166 105.885 16.1641C105.899 15.514 105.922 14.8234 105.398 14.4015C105.091 14.1819 104.636 14.0952 104.282 14.2772C103.804 14.4969 103.613 14.991 103.57 15.4677C103.555 15.9156 103.529 16.3779 103.718 16.7536C103.822 16.9645 104.033 17.1148 104.227 17.2072" fill="black"/>
    <path d="M97.9406 19.5962C97.5321 19.3766 97.1062 19.024 96.8803 18.6166C96.6282 18.1543 96.495 17.6544 96.4805 17.0967C96.4805 16.1461 96.8484 15.3341 97.4394 14.6204C97.9203 14.0627 98.5316 13.7737 99.2385 13.7188C100.055 13.7102 100.794 14.2823 101.133 15.0047C101.362 15.5132 101.495 16.0709 101.518 16.6662C101.495 16.7355 101.513 16.8164 101.426 16.8598C101.237 16.9089 101.017 16.8916 100.812 16.9002H99.9483L98.1897 16.906C98.0797 16.9291 97.9377 16.9002 97.874 17.0245C97.8189 17.4463 97.8595 17.9173 97.9609 18.3161C98.0797 18.7698 98.4968 19.2176 98.9662 19.3361C99.618 19.4835 100.279 19.2956 100.687 18.7409C100.922 18.4346 101.049 18.0907 101.087 17.7064C101.104 17.6515 101.165 17.6139 101.22 17.6139C101.316 17.6139 101.426 17.5995 101.481 17.6775C101.513 17.8018 101.472 17.9433 101.458 18.0763C101.339 18.7177 100.893 19.391 100.25 19.6655C99.5572 19.9718 98.6214 19.8851 97.9464 19.5962M98.8184 16.3917C99.2906 16.383 99.7687 16.4003 100.226 16.3541C100.342 16.305 100.319 16.1634 100.342 16.0623C100.31 15.5999 100.319 15.1289 100.139 14.7302C99.983 14.4066 99.6441 14.1898 99.2993 14.1407C98.8358 14.0945 98.4128 14.3141 98.1695 14.7042C97.9638 15.1261 97.9029 15.6057 97.8624 16.0998C97.8711 16.1923 97.8537 16.3021 97.9493 16.3599C98.2303 16.4148 98.5316 16.3686 98.8213 16.3917" fill="black"/>
    <path d="M14.0449 9.30715C14.7344 8.86216 15.4732 9.30715 15.4732 9.30715L15.1748 9.96018C14.7315 9.80126 14.3462 9.96018 14.3462 9.96018L14.0449 9.30426V9.30715Z" fill="black"/>
    <path d="M14.7559 8.70312V9.16545" stroke="black" stroke-width="0.1" stroke-miterlimit="3.86"/>
    <path d="M14.6797 8.6738C14.6797 8.63335 14.7116 8.60156 14.7521 8.60156C14.7927 8.60156 14.8245 8.63335 14.8245 8.6738C14.8245 8.71425 14.7927 8.74604 14.7521 8.74604C14.7116 8.74604 14.6797 8.71425 14.6797 8.6738Z" fill="black"/>
    <path d="M14.5215 8.72656L14.5798 9.16577" stroke="black" stroke-width="0.1" stroke-miterlimit="3.86"/>
    <path d="M14.4461 8.69601C14.4403 8.65844 14.4692 8.62088 14.5069 8.61799C14.5446 8.61221 14.5822 8.63822 14.5851 8.67867C14.5909 8.71912 14.5619 8.7538 14.5243 8.75958C14.4866 8.76536 14.4489 8.73646 14.4461 8.6989V8.69601Z" fill="black"/>
    <path d="M14.2949 8.76562L14.4086 9.19039" stroke="black" stroke-width="0.1" stroke-miterlimit="3.86"/>
    <path d="M14.2168 8.75274C14.2081 8.71518 14.2284 8.67761 14.2661 8.66605C14.3038 8.65739 14.3414 8.67761 14.353 8.71518C14.3617 8.75274 14.3414 8.7903 14.3038 8.80186C14.2661 8.81053 14.2284 8.7903 14.2168 8.75274Z" fill="black"/>
    <path d="M14.0742 8.83594L14.2567 9.2607" stroke="black" stroke-width="0.1" stroke-miterlimit="3.86"/>
    <path d="M13.9997 8.83359C13.9852 8.79602 13.9997 8.75557 14.0373 8.74112C14.0721 8.72378 14.1155 8.74112 14.13 8.77869C14.1445 8.81336 14.13 8.8567 14.0924 8.87115C14.0576 8.8856 14.0142 8.87115 13.9997 8.83359Z" fill="black"/>
    <path d="M13.873 8.94531L14.1077 9.34696" stroke="black" stroke-width="0.1" stroke-miterlimit="3.86"/>
    <path d="M13.7815 8.95976C13.7612 8.92508 13.7728 8.88174 13.8075 8.86152C13.8423 8.84129 13.8858 8.85285 13.906 8.88752C13.9263 8.9222 13.9147 8.96554 13.88 8.98577C13.8452 9.00599 13.8017 8.99443 13.7815 8.95976Z" fill="black"/>
    <path d="M14.988 8.75L14.9355 9.16898" stroke="black" stroke-width="0.1" stroke-miterlimit="3.86"/>
    <path d="M15.0617 8.70665C15.0675 8.66908 15.0385 8.63152 15.0008 8.62574C14.9603 8.61996 14.9255 8.64885 14.9226 8.68642C14.9168 8.72687 14.9458 8.76155 14.9835 8.76733C15.0211 8.7731 15.0588 8.74421 15.0617 8.70665Z" fill="black"/>
    <path d="M15.2124 8.80469L15.1074 9.19189" stroke="black" stroke-width="0.1" stroke-miterlimit="3.86"/>
    <path d="M15.2944 8.76647C15.3031 8.72891 15.2828 8.69135 15.2452 8.68268C15.2075 8.67112 15.1698 8.69424 15.1582 8.7318C15.1496 8.76936 15.1698 8.80693 15.2075 8.81849C15.2452 8.82715 15.2828 8.80693 15.2944 8.76936V8.76647Z" fill="black"/>
    <path d="M15.4336 8.85156L15.2598 9.26188" stroke="black" stroke-width="0.1" stroke-miterlimit="3.86"/>
    <path d="M15.5109 8.84798C15.5254 8.81041 15.5109 8.76996 15.4732 8.75551C15.4385 8.74106 15.395 8.75551 15.3805 8.79308C15.366 8.83064 15.3805 8.87109 15.4182 8.88554C15.453 8.89999 15.4964 8.88554 15.5109 8.84798Z" fill="black"/>
    <path d="M15.6429 8.94531L15.4141 9.34985" stroke="black" stroke-width="0.1" stroke-miterlimit="3.86"/>
    <path d="M15.7283 8.95195C15.7486 8.91727 15.737 8.87393 15.7022 8.8537C15.6675 8.83348 15.624 8.84503 15.6037 8.87971C15.5834 8.91438 15.595 8.96062 15.6298 8.97795C15.6646 8.99818 15.708 8.98662 15.7283 8.95195Z" fill="black"/>
    <path d="M1.17419 12.1294C0.557116 10.3177 1.65511 7.8298 3.27748 7.04096C4.6478 6.37636 6.25278 5.05584 7.04369 3.28456C7.76796 1.66064 10.2537 0.588624 11.9513 1.20698C13.4202 1.74444 15.9117 1.68087 17.4703 1.16653C19.2926 0.565507 21.7435 1.66642 22.5721 3.26433C23.3485 4.76111 24.8492 6.35325 26.3412 7.02073C27.9635 7.746 28.8529 10.4015 28.4213 11.9127C27.9288 13.6464 28.0475 15.5477 28.4618 17.4173C28.9051 19.4284 27.6767 21.8412 26.3585 22.5057C24.7478 23.3177 23.5078 24.7422 22.5923 26.265C21.6189 27.8832 19.2781 28.8916 17.6876 28.3397C15.9841 27.7474 13.9793 27.7791 12.1686 28.3802C10.3464 28.9812 7.83459 27.8109 7.06686 26.2795C6.25568 24.67 4.82162 23.4044 3.29776 22.5231C1.75941 21.6331 0.649822 19.1134 1.21765 17.6311C1.8608 15.9494 1.79707 13.9469 1.17709 12.1265L1.17419 12.1294Z" stroke="black" stroke-width="0.5" stroke-miterlimit="3.86"/>
    <path d="M7.73242 14.76C7.73242 10.888 10.8787 7.75 14.7607 7.75C18.6428 7.75 21.7891 10.888 21.7891 14.76C21.7891 18.632 18.6428 21.77 14.7607 21.77C10.8787 21.77 7.73242 18.632 7.73242 14.76V14.76Z" stroke="black" stroke-width="0.5" stroke-miterlimit="3.86"/>
    <path d="M3.28125 14.7559C3.28125 8.43072 8.42068 3.30469 14.7624 3.30469C21.1041 3.30469 26.2435 8.43072 26.2435 14.7559C26.2435 21.0811 21.1041 26.2043 14.7624 26.2043C8.42068 26.2043 3.28125 21.0782 3.28125 14.7559Z" stroke="black" stroke-width="0.5" stroke-miterlimit="3.86"/>
    <path d="M6.91281 16.2081L6.81431 14.8125L6.53329 14.8327L6.61151 15.9279L5.55118 16.003L5.47585 14.9368L5.19773 14.957L5.27016 16.0232L4.46767 16.0781L4.39235 14.9801L4.11133 15.0003L4.20983 16.3989L6.91281 16.2081Z" fill="black"/>
    <path fill-rule="evenodd" clip-rule="evenodd" d="M4.50781 12.8427L4.53098 12.756C4.6179 12.4035 4.73957 12.1001 5.17124 12.207C5.57973 12.3082 5.55945 12.6578 5.47543 12.9872L5.45226 13.0768L4.50781 12.8427ZM5.7101 13.1432L5.72748 13.071L7.07752 12.5653L7.16733 12.207L5.78252 12.7474C5.84916 12.3371 5.62608 12.0105 5.22049 11.9123C4.62948 11.7649 4.38033 12.1926 4.25576 12.6925L4.16016 13.071L6.78781 13.724L6.86024 13.4322L5.7072 13.1461L5.7101 13.1432Z" fill="black"/>
    <path d="M7.44381 11.2588L7.62923 11.0131L6.37769 9.63483L6.38058 9.63194L8.4549 10.1029L7.42933 8.24208L7.43222 8.2363L9.10384 9.05981L9.28925 8.8142L6.67319 7.53125L7.89576 9.68395L5.48828 9.10316L7.44381 11.2588Z" fill="black"/>
    <path d="M10.0077 8.18042L11.2361 7.50138L11.0999 7.25865L10.1352 7.79033L9.61948 6.86279L10.5552 6.34845L10.4191 6.10284L9.48332 6.62007L9.09511 5.91791L10.0569 5.38624L9.92368 5.14062L8.69531 5.81967L10.0077 8.18042Z" fill="black"/>
    <path d="M12.3657 7.07051L12.6641 7.03005L12.3744 4.96981L14.7732 6.85668L14.3792 4.0625L14.0808 4.10584L14.3734 6.17475L11.9746 4.28499L12.3657 7.07051Z" fill="black"/>
    <path d="M15.75 6.87541L17.1232 7.16725L17.2101 6.92164L16.1324 6.69337L16.3265 5.62713L17.3724 5.84962L17.4303 5.57512L16.3845 5.35551L16.5496 4.56956L17.6273 4.79783L17.6881 4.52622L16.3149 4.23438L15.75 6.87541Z" fill="black"/>
    <path d="M19.5857 6.85251L19.4408 7.09234L20.1303 7.50554C19.8725 7.93609 19.2699 7.97365 18.8672 7.73382C18.6238 7.58934 18.4529 7.31484 18.3863 7.04322C18.3197 6.76582 18.3602 6.47398 18.5109 6.22837C18.8237 5.70536 19.5104 5.51176 20.0405 5.82961C20.3824 6.03477 20.5446 6.35262 20.5736 6.74271L20.8662 6.68203C20.8111 6.21392 20.591 5.83539 20.1854 5.59267C19.5162 5.19103 18.6499 5.40774 18.2501 6.06945C17.859 6.72248 18.0734 7.58645 18.7281 7.97654C19.0526 8.17014 19.4582 8.22215 19.8203 8.10368C20.1825 7.98521 20.3708 7.74827 20.5533 7.43042L19.5857 6.84962V6.85251Z" fill="black"/>
    <path d="M22.5721 7.30961L22.3548 7.10156L20.4746 9.04333L20.6919 9.25138L22.5721 7.30961Z" fill="black"/>
    <path d="M23.8466 9.07459L23.6815 8.82031L21.4102 10.2911L21.9809 11.1695L22.2155 11.0164L21.81 10.3922L23.8466 9.07459Z" fill="black"/>
    <path fill-rule="evenodd" clip-rule="evenodd" d="M22.1309 11.8592L22.2786 12.3388C22.4032 12.7434 22.548 13.0352 22.9189 13.2606C23.2607 13.4686 23.6344 13.5033 24.0111 13.3877C24.3964 13.2721 24.7035 13.0323 24.8657 12.6596C25.0337 12.2752 24.9874 11.943 24.8686 11.5586L24.7209 11.0703L22.1309 11.8592ZM22.4872 12.0643L24.5412 11.4373L24.605 11.6453C24.6977 11.9487 24.7382 12.2232 24.5992 12.5237C24.4717 12.8069 24.2226 13.0063 23.9271 13.0959C23.6373 13.1826 23.3331 13.1566 23.0695 13.0034C22.774 12.8358 22.6494 12.5844 22.5509 12.2695L22.4872 12.0614V12.0643Z" fill="black"/>
    <path fill-rule="evenodd" clip-rule="evenodd" d="M25.5006 15.5196C25.5267 14.751 24.9212 14.0922 24.1476 14.0633C23.3683 14.0373 22.731 14.6528 22.702 15.4214C22.6759 16.19 23.2698 16.8488 24.0491 16.8777C24.8256 16.9037 25.4745 16.2882 25.5006 15.5196ZM25.2225 15.511C25.1993 16.1293 24.6778 16.6003 24.0636 16.5772C23.4523 16.557 22.9598 16.0455 22.983 15.4329C23.0033 14.8204 23.5306 14.3436 24.1418 14.3667C24.756 14.3869 25.2427 14.8926 25.2225 15.511Z" fill="black"/>
    <path d="M7.52499 22.2713L10.2627 21.5084L8.95325 20.2891L8.76204 20.4942L9.7036 21.3697L6.96875 22.1384L8.38832 23.456L8.57953 23.2508L7.52499 22.2713Z" fill="black"/>
    <path d="M9.9375 24.3583L11.2209 24.9275L11.3339 24.6732L10.3257 24.2254L10.7574 23.2574L11.7366 23.6908L11.8496 23.4365L10.8733 23.0002L11.2006 22.2692L12.2059 22.717L12.3218 22.4599L11.0384 21.8906L9.9375 24.3583Z" fill="black"/>
    <path d="M14.5752 24.1516L14.5665 24.4289L15.369 24.4578C15.3516 24.9577 14.8446 25.2843 14.3753 25.2698C14.0914 25.2582 13.8104 25.1022 13.6192 24.8999C13.4251 24.689 13.3208 24.4116 13.3294 24.1255C13.3497 23.5187 13.8567 23.0131 14.4738 23.0362C14.8736 23.0506 15.1691 23.25 15.3864 23.5765L15.6124 23.38C15.3371 22.9986 14.9605 22.7732 14.4883 22.7588C13.709 22.7299 13.0571 23.3396 13.0282 24.1111C13.0021 24.8682 13.6105 25.5212 14.3724 25.5472C14.749 25.5588 15.1314 25.4085 15.3893 25.1311C15.6471 24.8537 15.6964 24.5561 15.7022 24.1891L14.5752 24.1516Z" fill="black"/>
    <path d="M17.7478 25.1318L18.023 25.0105L17.1742 23.1092L20.0017 24.265L18.8487 21.6875L18.5735 21.8089L19.4281 23.7188L16.5977 22.5601L17.7478 25.1318Z" fill="black"/>
    <path fill-rule="evenodd" clip-rule="evenodd" d="M22.2275 21.3685L23.0126 21.643L23.2357 21.3974L20.3125 20.4062L21.5843 23.2235L21.8045 22.9779L21.4511 22.2238L22.2246 21.3656L22.2275 21.3685ZM21.9407 21.2702L21.3294 21.9493L20.834 20.883L21.9436 21.2731L21.9407 21.2702Z" fill="black"/>
    <path d="M13.0689 10.1009C13.263 10.3494 13.5093 10.4303 13.6918 10.4506C13.6078 10.5286 13.5614 10.6673 13.5614 10.7366L13.5672 11.407C13.5672 11.5081 13.6512 11.6439 13.7642 11.7017V11.7797C13.3123 11.904 13.0979 12.2623 13.1268 12.5657C13.15 12.8113 13.3905 13.0627 13.77 13.2129C13.3876 13.265 12.814 13.4037 12.5185 13.4817C11.939 13.6348 12.9009 15.0016 12.9009 15.0016C12.785 15.227 12.2461 15.1807 12.0723 14.9236C12.0491 15.1865 11.7275 15.3368 11.7275 15.3368C11.4263 14.022 11.9159 13.3632 11.9159 13.3632C11.7507 13.5019 11.4842 13.4354 11.4842 13.4354C11.4552 14.2214 11.1365 14.2474 11.1365 14.2474C11.1365 14.2474 10.9598 14.623 10.6469 14.5566C10.5282 14.5797 10.3312 14.8138 10.3312 14.8138C10.0385 13.9931 9.3925 14.3052 9.51128 13.3863C9.40409 12.479 9.89949 12.583 9.89949 12.583C9.65613 11.7884 10.027 11.6324 10.027 11.6324C10.1573 13.1234 11.6899 11.8 10.5542 11.6324C10.6962 11.3319 11.0641 11.3232 11.0641 11.3232C11.0641 11.3232 10.8642 10.8955 10.2558 10.9707C10.4152 10.4968 11.1076 10.5286 11.1076 10.5286C11.3278 10.15 11.8463 10.2916 11.8463 10.2916C11.8463 10.2916 11.2698 10.543 11.5074 11.0227C11.7015 10.8233 11.9738 10.8464 11.9738 10.8464C11.8347 12.0514 12.7473 11.6064 12.7473 11.6064C12.3359 10.7164 12.982 10.5546 12.982 10.5546C12.898 10.361 13.0718 10.1009 13.0718 10.1009H13.0689ZM17.1103 13.499C16.7569 13.3921 16.0616 13.2736 15.8443 13.2187C16.2586 13.0685 16.5396 12.8171 16.5396 12.5628C16.5396 12.2854 16.3223 11.8838 15.8472 11.7624V11.4185C15.8878 11.3087 15.9022 11.1469 15.9022 11.0169C15.9022 10.8233 15.8443 10.6297 15.7458 10.4679L15.824 10.4534C15.824 10.4534 16.192 10.5083 16.5483 10.0547C16.5483 10.0547 16.7221 10.3147 16.6381 10.5083C16.6381 10.5083 17.2871 10.6702 16.8728 11.5601C16.8728 11.5601 17.7854 12.0051 17.6463 10.8002C17.6463 10.8002 17.9186 10.7771 18.1127 10.9764C18.3503 10.4968 17.7738 10.2454 17.7738 10.2454C17.7738 10.2454 18.2923 10.1038 18.5125 10.4823C18.5125 10.4823 19.2049 10.4506 19.3672 10.9244C18.7588 10.8493 18.5589 11.277 18.5589 11.277C18.5589 11.277 18.9268 11.2885 19.0659 11.589C17.9302 11.7566 19.4599 13.08 19.5931 11.589C19.5931 11.589 19.964 11.7451 19.7206 12.5368C19.7206 12.5368 20.216 12.4357 20.1088 13.3401C20.2276 14.259 19.5815 13.9498 19.2889 14.7704C19.2889 14.7704 19.0919 14.5335 18.9732 14.5104C18.6574 14.5768 18.4835 14.2012 18.4835 14.2012C18.4835 14.2012 18.1649 14.1752 18.1359 13.3892C18.1359 13.3892 17.881 13.4528 17.7158 13.3256C17.7969 13.395 18.2981 13.892 17.8925 15.2905C17.8925 15.2905 17.6086 15.1721 17.5304 14.9322C17.3682 15.0825 16.9626 15.1489 16.8438 14.9207C16.8438 14.9207 17.5188 13.6204 17.1103 13.499Z" fill="black"/>
    <path d="M15.2895 18.9741C15.2895 18.9741 15.2924 18.8325 15.2403 18.7343C15.5271 18.6938 15.4431 18.3008 15.417 18.2373C15.3243 17.9888 15.1621 17.5467 15.4402 17.538C15.585 17.5322 15.3504 17.7142 15.3822 17.7923C15.446 17.7142 15.3185 17.931 15.4054 18.009C15.4257 17.9483 15.4025 18.2286 15.5097 18.1275C15.756 17.8963 15.6951 17.1508 15.2606 17.5149C14.9969 17.7345 15.2461 17.905 15.3533 18.3442C15.4286 18.6562 15.1534 18.5869 15.1244 18.5811C14.9824 18.558 14.9651 18.2344 14.9651 18.2344C14.9651 18.2344 15.0578 18.3182 15.052 18.3008C15.0056 18.0697 15.2026 17.5004 15.0317 17.2115C15.0578 17.1739 15.1737 17.0468 14.826 17.1046C14.7826 17.1132 14.7072 17.0323 14.6087 17.1537C14.3972 17.1566 14.3799 17.1623 14.403 17.3213C14.1162 17.4195 14.3567 17.145 14.2466 17.171C14.0061 17.2259 14.2089 17.5178 14.4175 17.4369C14.4175 17.4369 14.4088 17.4918 14.4262 17.5062C14.3885 17.5062 14.2234 17.5467 14.1684 17.5813C14.067 17.4426 13.9366 17.4946 13.9772 17.4137C14.0757 17.2201 13.9888 17.1826 13.9685 17.1595C13.9569 17.145 13.8671 17.1074 13.7975 17.1335C13.8178 17.1363 13.8613 17.1652 13.8613 17.1797C13.8613 17.1912 13.8149 17.1912 13.8149 17.197C13.7975 17.197 13.7019 17.1566 13.6817 17.1739C13.7251 17.197 13.7686 17.1999 13.7628 17.2317C13.7628 17.2433 13.7106 17.249 13.7222 17.2808C13.7222 17.2982 13.6469 17.2664 13.6237 17.2924C13.6498 17.3155 13.6875 17.3444 13.6817 17.3646C13.6701 17.4369 13.8149 17.46 13.8207 17.5235C13.8381 17.6073 13.728 17.6478 13.8613 17.6651C14.0409 17.6882 14.0525 17.8847 14.0525 17.8847C14.0525 17.8847 13.8091 17.9801 13.786 17.8847C13.7309 17.6767 13.6759 17.772 13.6411 17.7576C13.6295 17.7547 13.5339 17.7403 13.4991 17.7894C13.5542 17.7894 13.5918 17.8038 13.5861 17.8154C13.5774 17.8327 13.447 17.8298 13.447 17.8703C13.4962 17.8645 13.5513 17.8876 13.5513 17.8876C13.5513 17.8876 13.418 17.9367 13.3948 18.0061C13.4528 18.0003 13.5194 17.983 13.5252 18.0061C13.615 18.3095 13.8468 18.1101 13.841 18.1535C13.8352 18.1939 13.9366 18.1881 13.9366 18.1881C13.9366 18.1881 14.122 18.1997 14.2408 18.1881C14.264 18.4048 14.4204 18.3442 14.6783 18.5782C14.6783 18.5782 14.4436 18.7169 14.264 18.7949C13.8381 18.9828 14.5363 19.5578 14.1104 19.5058C13.9134 19.4826 13.8729 19.578 13.8729 19.578C13.8729 19.578 13.9192 19.6242 13.9221 19.6734C13.9221 19.7225 14.0409 19.8294 14.2234 19.7774C14.4059 19.7283 14.3885 19.6358 14.4117 19.6705C14.432 19.708 14.4842 19.63 14.4552 19.5867C14.3857 19.4884 14.5102 19.4364 14.5102 19.4364C14.5102 19.4364 14.771 19.3613 14.6029 19.2081C14.3914 19.0145 14.8231 18.8874 14.8405 18.9307C14.8173 19.1186 14.9216 19.2399 15.1244 19.2052C15.3272 19.1706 15.2751 19.6011 15.2084 19.5867C14.9419 19.5318 14.9361 19.6849 14.9187 19.6762C14.9187 19.6762 15.0201 19.6705 14.9796 19.7427C14.939 19.8149 15.081 19.8323 15.081 19.8323C15.081 19.8323 15.1157 19.7947 15.2722 19.8409C15.4286 19.8872 15.4663 19.6618 15.4663 19.6618L15.5358 19.6473C15.5358 19.6473 15.3967 19.3266 15.5445 19.1561C15.6835 18.9943 15.6169 18.9799 15.2982 18.9596L15.2895 18.9741ZM12.9023 16.7578H16.5758V19.6445C16.5758 19.9103 16.3586 20.127 16.092 20.127H13.3862C13.1196 20.127 12.9023 19.9103 12.9023 19.6445V16.7578Z" fill="black"/>
    <path d="M13.9078 16.3437L13.8846 16.127L14.0584 15.9826L13.8875 15.8467L13.9078 15.6242L13.6905 15.6474L13.5456 15.474L13.4095 15.6445L13.1864 15.6214L13.2096 15.8381L13.0357 15.9826L13.2067 16.1184L13.1835 16.3409L13.4008 16.3148L13.5427 16.4882L13.6789 16.3177L13.902 16.3409L13.9078 16.3437ZM16.3384 16.3437L16.3152 16.127L16.4891 15.9826L16.3181 15.8467L16.3413 15.6242L16.124 15.6474L15.9821 15.474L15.8459 15.6445L15.6228 15.6214L15.646 15.8381L15.4722 15.9826L15.6431 16.1184L15.6228 16.3409L15.8401 16.3148L15.985 16.4882L16.1211 16.3177L16.3442 16.3409L16.3384 16.3437ZM14.2496 15.9826L14.4205 16.1212L14.4003 16.3437L14.6175 16.3177L14.7595 16.4911L14.8957 16.3206L15.1187 16.3437L15.0956 16.127L15.2694 15.9826L15.0985 15.8467L15.1216 15.6242L14.9044 15.6474L14.7595 15.474L14.6233 15.6474L14.4003 15.6242L14.4234 15.841L14.2496 15.9826ZM12.9141 15.2891H16.5876V16.6125H12.9141V15.2891Z" fill="black"/>
    <path d="M11.2936 17.9122C11.2878 17.8284 11.0706 18.6202 11.9455 19.0883C12.2381 19.2443 11.9629 19.8742 11.9455 19.6864C11.9831 19.0392 11.1401 19.4379 11.5225 19.8569C11.6934 20.0418 12.0092 19.9291 12.0092 19.9291C12.0092 19.9291 12.6002 19.6633 12.157 18.7618C11.9976 18.4381 12.5162 18.2966 12.2815 17.8516C11.9165 18.493 11.2994 17.996 11.2936 17.9122Z" fill="black"/>
    <path d="M12.168 15.125C12.8749 15.6856 12.3158 16.9367 12.2462 17.1043C12.1738 17.2835 12.2057 17.6909 12.2057 17.6909C12.2057 17.6909 11.7364 17.6996 11.6321 17.2026C11.3337 17.3037 11.3134 17.6649 11.3134 17.6649C11.3134 17.6649 10.8238 17.1766 11.3018 16.6593C10.9744 16.7489 11.0005 16.171 11.0005 16.171C11.0005 16.171 11.8059 16.5293 12.168 15.125Z" fill="black"/>
    <path d="M11.1376 14.7891C11.1376 14.8353 11.2448 15.6299 10.6973 15.5143C10.7436 15.5895 10.9059 15.6444 11.1608 15.5403C11.2216 15.6877 11.2332 15.8466 11.4737 15.7917C11.0449 15.4594 11.3752 14.8613 11.1347 14.7891H11.1376Z" fill="black"/>
    <path d="M19.9062 14.3215C19.9526 14.3302 20.5233 14.3186 20.2974 14.8272C20.3814 14.7983 20.4683 14.6509 20.4219 14.3793C20.5784 14.3504 20.7377 14.3706 20.7319 14.125C20.3176 14.4746 20.0279 14.099 19.9062 14.3215Z" fill="black"/>
    <path d="M9.67934 14.2561C9.63298 14.2677 9.06226 14.2532 9.28823 14.7618C9.20422 14.7329 9.1173 14.5884 9.16366 14.3139C9.00721 14.285 8.84787 14.3052 8.85367 14.0625C9.26795 14.4121 9.55766 14.0394 9.67934 14.259V14.2561Z" fill="black"/>
    <path d="M18.3888 14.875C18.3888 14.9212 18.2816 15.7159 18.8292 15.6003C18.7828 15.6754 18.6235 15.7332 18.3656 15.6292C18.3048 15.7765 18.2932 15.9355 18.0527 15.8806C18.4815 15.5483 18.1512 14.9501 18.3917 14.8779L18.3888 14.875Z" fill="black"/>
    <path d="M18.2765 17.9122C18.2823 17.8284 18.4995 18.6202 17.6246 19.0883C17.3349 19.2443 17.6072 19.8742 17.6246 19.6864C17.587 19.0392 18.43 19.4379 18.0447 19.8569C17.8767 20.0418 17.558 19.9291 17.558 19.9291C17.558 19.9291 16.9699 19.6633 17.4131 18.7618C17.5725 18.4381 17.0539 18.2966 17.2886 17.8516C17.6536 18.493 18.2707 17.996 18.2765 17.9122Z" fill="black"/>
    <path d="M17.4006 15.125C16.6937 15.6856 17.2529 16.9367 17.3224 17.1043C17.3948 17.2835 17.363 17.6909 17.363 17.6909C17.363 17.6909 17.8323 17.6996 17.9366 17.2026C18.235 17.3037 18.2553 17.6649 18.2553 17.6649C18.2553 17.6649 18.7449 17.1766 18.2669 16.6593C18.5942 16.7489 18.5682 16.171 18.5682 16.171C18.5682 16.171 17.7657 16.5293 17.4006 15.125Z" fill="black"/>
    <path d="M13.1562 14.2508C13.1562 14.2074 13.1939 14.1872 13.2403 14.1757C14.7352 13.8029 14.7236 13.7913 16.2764 14.167C16.3199 14.1785 16.3604 14.2017 16.3604 14.2421C16.3604 14.2421 16.0417 15.1032 15.8361 15.083H13.6777C13.4662 15.083 13.1562 14.2508 13.1562 14.2508Z" fill="black"/>
    <path d="M14.1875 13.6387C14.1875 13.5636 14.2512 13.5 14.3266 13.5C14.4019 13.5 14.4656 13.5636 14.4656 13.6387C14.4656 13.7138 14.4048 13.7774 14.3266 13.7774C14.2483 13.7774 14.1875 13.7167 14.1875 13.6387Z" fill="black"/>
    <path d="M13.75 13.7168C13.75 13.6388 13.8137 13.5781 13.8891 13.5781C13.9644 13.5781 14.0281 13.6417 14.0281 13.7168C14.0281 13.792 13.9644 13.8555 13.8891 13.8555C13.8137 13.8555 13.75 13.7948 13.75 13.7168Z" fill="black"/>
    <path d="M13.3125 13.8028C13.3125 13.7247 13.3762 13.6641 13.4516 13.6641C13.5269 13.6641 13.5906 13.7276 13.5906 13.8028C13.5906 13.8779 13.5269 13.9415 13.4516 13.9415C13.3762 13.9415 13.3125 13.8808 13.3125 13.8028Z" fill="black"/>
    <path d="M12.875 13.8809C12.875 13.8058 12.9358 13.7422 13.0141 13.7422C13.0923 13.7422 13.1531 13.8058 13.1531 13.8809C13.1531 13.956 13.0894 14.0196 13.0141 14.0196C12.9387 14.0196 12.875 13.9589 12.875 13.8809Z" fill="black"/>
    <path d="M16.3574 13.8809C16.3574 13.8058 16.4183 13.7422 16.4965 13.7422C16.5747 13.7422 16.6355 13.8058 16.6355 13.8809C16.6355 13.956 16.5718 14.0196 16.4965 14.0196C16.4212 14.0196 16.3574 13.9589 16.3574 13.8809Z" fill="black"/>
    <path d="M15.9258 13.8028C15.9258 13.7247 15.9895 13.6641 16.0648 13.6641C16.1402 13.6641 16.2039 13.7276 16.2039 13.8028C16.2039 13.8779 16.1402 13.9415 16.0648 13.9415C15.9895 13.9415 15.9258 13.8808 15.9258 13.8028Z" fill="black"/>
    <path d="M15.4922 13.7168C15.4922 13.6388 15.5559 13.5781 15.6312 13.5781C15.7066 13.5781 15.7703 13.6417 15.7703 13.7168C15.7703 13.792 15.7066 13.8555 15.6312 13.8555C15.5559 13.8555 15.4922 13.7948 15.4922 13.7168Z" fill="black"/>
    <path d="M15.0566 13.6387C15.0566 13.5636 15.1175 13.5 15.1957 13.5C15.2739 13.5 15.3348 13.5636 15.3348 13.6387C15.3348 13.7138 15.271 13.7774 15.1957 13.7774C15.1204 13.7774 15.0566 13.7167 15.0566 13.6387Z" fill="black"/>
    <path d="M14.623 13.5606C14.623 13.4826 14.6868 13.4219 14.7621 13.4219C14.8374 13.4219 14.9012 13.4854 14.9012 13.5606C14.9012 13.6357 14.8403 13.6993 14.7621 13.6993C14.6839 13.6993 14.623 13.6386 14.623 13.5606Z" fill="black"/>
    <path d="M14.1919 11.5907C14.1919 11.5907 14.6322 11.3307 14.7539 11.244C14.7915 11.2729 14.8118 11.2729 14.8611 11.2729C14.9828 11.2729 15.0784 11.1747 15.0784 11.0533C15.0784 10.9319 14.9799 10.8337 14.8611 10.8337C14.8205 10.8337 14.7829 10.8452 14.751 10.8626C14.6409 10.7875 14.2817 10.5621 14.2817 10.5621C14.4033 10.3598 14.5511 10.25 14.7742 10.25C15.1421 10.25 15.4405 10.6112 15.4405 11.0533C15.4405 11.166 15.4202 11.2729 15.3854 11.3711V11.9259C15.7852 12.0328 16.0576 12.2438 16.0576 12.4894C16.0576 12.8419 15.4926 13.128 14.7973 13.128C14.102 13.128 13.5371 12.8419 13.5371 12.4894C13.5371 12.2524 13.7921 12.0444 14.1745 11.9346L14.1976 11.5821L14.1919 11.5907Z" fill="black"/>
    <path d="M14.7522 11.1451L14.7377 11.1393C14.7204 11.1451 14.1294 11.4803 14.1294 11.4803C14.0453 11.4803 13.9961 11.4341 13.9961 11.3503V10.755C13.9961 10.6712 14.0656 10.625 14.1496 10.625C14.1496 10.625 14.7291 10.966 14.7406 10.9804C14.7638 10.9573 14.7899 10.9371 14.8247 10.9371C14.8913 10.9371 14.9434 10.9891 14.9434 11.0555C14.9434 11.122 14.8913 11.174 14.8247 11.174C14.7986 11.174 14.7725 11.1653 14.7522 11.148V11.1451Z" fill="black"/>
    <path d="M32.3691 19.8871V19.5751H33.4671V11.1636H32.3691V10.8516H38.9861L39.0933 13.2441H38.8499C38.4298 11.6086 38.1981 11.1607 36.5033 11.1607H34.7824V15.0963C35.9905 15.0818 36.5322 15.0414 36.6655 13.6891H36.9784V17.0149H36.68C36.5844 15.6366 36.0426 15.4315 34.7824 15.4315V19.5693H35.947V19.8814H32.3691V19.8871Z" fill="black"/>
    <path d="M43.2907 17.2244C43.2907 18.8599 42.0971 20.0648 40.6747 20.0648C39.2522 20.0648 38.0586 18.8628 38.0586 17.2244C38.0586 15.586 39.2522 14.3984 40.6747 14.3984C42.0971 14.3984 43.2907 15.5889 43.2907 17.2244ZM39.2927 17.2244C39.2927 18.36 39.3072 19.7932 40.6747 19.7932C42.0421 19.7932 42.0566 18.36 42.0566 17.2244C42.0566 16.0888 42.0421 14.6701 40.6747 14.6701C39.3072 14.6701 39.2927 16.1033 39.2927 17.2244Z" fill="black"/>
    <path d="M44.2435 14.8434H43.499V14.5314H43.7829C44.0407 14.5314 44.2986 14.5314 44.5419 14.5054C44.7998 14.4909 45.0576 14.4504 45.301 14.3984V15.8316H45.3271C45.7066 14.9792 46.2367 14.3984 47.2246 14.3984C47.7114 14.3984 48.8383 14.5054 48.8383 15.7507V19.5765H49.5713V19.8886H47.0769V19.5765H47.7809V15.927C47.7809 14.9388 47.468 14.7914 46.9262 14.7914C46.005 14.7914 45.2981 16.0484 45.2981 17.0626V19.5765H46.031V19.8886H43.4961V19.5765H44.2406V14.8434H44.2435Z" fill="black"/>
    <path d="M56.0206 19.5754V19.8875C55.4238 19.8875 54.827 19.9019 54.2302 19.9944V19.0899H54.2041C53.8246 19.7401 53.2017 20.0637 52.4282 20.0637C51.0579 20.0637 50.041 18.7519 50.041 17.2117C50.041 15.6716 50.9478 14.4002 52.5615 14.4002C52.996 14.4002 53.7811 14.6025 54.1896 15.4289H54.2157V10.8866H53.3089V10.5745H53.7551C54.2563 10.5745 54.7864 10.5485 55.2731 10.4531V19.5812H56.0177L56.0206 19.5754ZM52.576 14.6661C51.3157 14.6661 51.2752 16.0444 51.2752 17.0066C51.2752 19.0899 51.533 19.7777 52.6455 19.7777C52.9989 19.7777 53.4045 19.5609 53.5813 19.4136C54.0969 18.9541 54.2737 18.6825 54.2737 17.2782C54.2737 16.9806 54.2592 16.3593 54.1781 16.0877C54.123 15.8855 53.8246 14.669 52.5789 14.669L52.576 14.6661Z" fill="black"/>
    <path d="M61.4133 18.9581C61.3727 19.5938 60.8831 20.0677 60.2602 20.0677C59.759 20.0677 59.4751 19.7441 59.3795 19.2442C58.9189 19.8105 58.2409 20.0677 57.5485 20.0677C56.6939 20.0677 55.9609 19.7441 55.9609 18.7414C56.0015 17.4845 57.2907 16.7794 59.365 16.7794V15.4936C59.365 14.8579 58.8638 14.6701 58.3887 14.6701C58.0903 14.6701 57.1285 14.7654 57.1285 15.1555C57.1285 15.2624 57.5341 15.3318 57.5341 15.7767C57.5341 16.1148 57.3168 16.346 56.9778 16.346C56.6128 16.346 56.4071 16.0744 56.4071 15.6958C56.4071 15.2104 56.9633 14.3984 58.577 14.3984C60.4195 14.3984 60.4195 15.1815 60.4195 15.7247V18.9437C60.4195 19.3482 60.4195 19.5649 60.7035 19.5649C60.9874 19.5649 61.1091 19.1864 61.1786 18.9552H61.4104L61.4133 18.9581ZM59.365 17.0655C58.4843 17.0799 56.9778 17.2273 56.9778 18.4727C56.9778 19.1344 57.3979 19.5418 58.0208 19.5418C58.4553 19.5418 58.7392 19.4349 59.0637 19.1488C59.1709 19.0419 59.3621 18.8917 59.3621 18.3253V17.0684L59.365 17.0655Z" fill="black"/>
    <path d="M62.1993 16.2881V14.5312H66.2668V14.8693L63.1206 19.5735H64.8299C65.5078 19.5735 65.7801 18.8973 65.9829 17.9236H66.2408V19.8856H61.8633V19.5879L65.0356 14.8433H63.8304C63.1264 14.8433 62.7179 14.9502 62.5151 16.291H62.2022L62.1993 16.2881Z" fill="black"/>
    <path d="M66.9395 19.8838V19.5718H67.8462V14.8387H66.9395V14.5266H67.3856C67.8868 14.5266 68.4141 14.5122 68.9037 14.3908V19.5689H69.7033V19.8809H66.9395V19.8838ZM68.3619 10.9609C68.6864 10.9609 69.0514 11.2586 69.0514 11.6111C69.0514 12.0301 68.753 12.3277 68.3619 12.3277C67.9708 12.3277 67.7101 12.0041 67.7101 11.6111C67.7101 11.2586 68.023 10.9609 68.3619 10.9609Z" fill="black"/>
    <path d="M74.7419 17.2244C74.7419 18.8599 73.5483 20.0648 72.1258 20.0648C70.7034 20.0648 69.5098 18.8628 69.5098 17.2244C69.5098 15.586 70.7034 14.3984 72.1258 14.3984C73.5483 14.3984 74.7419 15.5889 74.7419 17.2244ZM70.7439 17.2244C70.7439 18.36 70.7584 19.7932 72.1258 19.7932C73.4933 19.7932 73.5077 18.36 73.5077 17.2244C73.5077 16.0888 73.4933 14.6701 72.1258 14.6701C70.7584 14.6701 70.7439 16.1033 70.7439 17.2244Z" fill="black"/>
    <path d="M75.6947 14.8434H74.9502V14.5314H75.2341C75.4919 14.5314 75.7498 14.5314 75.9931 14.5054C76.2509 14.4909 76.5088 14.4504 76.7521 14.3984V15.8316H76.7782C77.1577 14.9792 77.685 14.3984 78.6758 14.3984C79.1654 14.3984 80.2895 14.5054 80.2895 15.7507V19.5765H81.0225V19.8886H78.5281V19.5765H79.2321V15.927C79.2321 14.9388 78.9192 14.7914 78.3774 14.7914C77.4561 14.7914 76.7493 16.0484 76.7493 17.0626V19.5765H77.4822V19.8886H74.9473V19.5765H75.6918V14.8434H75.6947Z" fill="black"/>
    <path d="M86.0081 18.2126C85.7358 19.4696 84.8145 20.0648 83.6238 20.0648C82.2419 20.0648 80.9121 18.9552 80.9121 17.4556C80.9121 15.8605 81.9695 14.3984 83.5832 14.3984C84.9651 14.3984 86.0081 15.3318 86.0226 16.8054H82.1868V17.3602C82.1868 18.6981 82.3635 19.7816 83.8411 19.7816C84.6146 19.7816 85.5214 19.1055 85.7126 18.2126H86.011H86.0081ZM84.7884 16.4153V15.9559C84.7884 14.9821 84.2206 14.6701 83.5427 14.6701C82.7286 14.6701 82.3635 15.4271 82.3375 15.5225C82.2564 15.7652 82.2158 16.0773 82.2013 16.4153H84.7913H84.7884Z" fill="black"/>
</svg>
