<svg width="63" height="28" viewBox="0 0 63 28" fill="none" xmlns="http://www.w3.org/2000/svg">
<g clip-path="url(#clip0_1062_18488)">
<path d="M13.0576 5.98727C13.3049 5.40279 13.7249 5.07402 14.3679 5.10578C14.8906 5.13172 15.2709 5.40067 15.4721 5.88086C15.711 6.45051 15.5537 6.94711 15.1221 7.37912C15.1406 7.41088 15.1549 7.44212 15.175 7.46912C15.3011 7.63588 15.4017 7.89795 15.5622 7.94242C15.7412 7.99218 15.9721 7.82595 16.1861 7.78571C16.4233 7.74124 16.4482 7.55753 16.507 7.38441C16.8068 6.50028 17.6732 5.99839 18.5963 6.17204C19.4691 6.33563 20.1094 7.13876 20.0613 8.04195C20.0237 8.74979 19.6826 9.28874 19.0423 9.59686C18.3956 9.90763 17.7431 9.85839 17.168 9.42903C16.9238 9.24691 16.7194 9.18762 16.4519 9.3078C16.4122 9.3258 16.3688 9.34168 16.3259 9.34538C16.0362 9.3708 15.9705 9.52115 15.989 9.80386C16.0092 10.1152 15.9414 10.4323 15.917 10.7473C15.9107 10.8267 15.9244 10.9077 15.9292 10.9882C16.0145 10.9718 16.1146 10.9792 16.1834 10.9363C16.9646 10.4492 17.8835 10.5053 18.4984 11.1089C19.0444 11.6452 19.2112 12.2974 18.9649 13.0238C18.7181 13.7533 18.1801 14.1695 17.4211 14.2452C16.6733 14.3198 16.0822 14.0165 15.6782 13.3737C15.6469 13.324 15.6162 13.2732 15.5537 13.172C15.6421 13.8666 15.4388 14.3834 14.8429 14.6639C14.2334 14.9504 13.6958 14.7772 13.2329 14.2706C13.1281 14.5999 12.9713 14.8826 12.662 15.0033C12.457 15.0832 12.2171 15.1277 11.9989 15.1113C11.4958 15.0737 11.1928 14.7227 11.0594 14.0943C10.7861 14.4522 10.7866 14.4686 11.1197 14.728C12.2033 15.5724 13.0915 16.563 13.5284 17.8992C13.6015 18.1226 13.7657 18.2095 14.0067 18.1608C14.2741 18.1068 14.5442 18.0512 14.8154 18.0332C15.0553 18.0173 15.1697 17.9008 15.2576 17.6928C15.5277 17.0548 15.9626 16.582 16.65 16.3814C17.6526 16.0881 18.7065 16.5354 19.1847 17.4582C19.6651 18.3852 19.4273 19.505 18.6133 20.1498C17.803 20.792 16.6537 20.7533 15.8376 20.0556C15.7708 19.9984 15.6893 19.9454 15.6496 19.8719C15.4721 19.5452 15.2047 19.5436 14.8906 19.6199C14.6433 19.6802 14.3869 19.7046 14.1349 19.7448C13.9394 19.776 13.8489 19.901 13.8298 20.0884C13.682 21.5115 13.5597 21.9191 12.9247 23.0902C13.6481 23.3893 14.1396 23.9108 14.37 24.6626C14.5379 25.2111 14.5225 25.758 14.3287 26.2969C13.949 27.3557 12.9051 28.0503 11.7812 27.9963C10.5472 27.9371 9.69985 27.1583 9.37572 25.8151C8.74866 25.8543 8.12901 25.8908 7.51041 25.9369C7.4601 25.9406 7.38331 26.0015 7.37112 26.0491C7.24719 26.5304 6.70381 26.8311 6.22821 26.7104C5.72826 26.5833 5.46874 26.1889 5.49787 25.5631C5.37765 25.5134 5.25054 25.4609 5.09907 25.3985C4.93118 26.0126 4.6007 26.4917 4.03031 26.7776C3.64686 26.9693 3.24012 27.0143 2.82013 26.9481C2.04319 26.8258 1.38646 26.1783 1.24294 25.3969C1.0724 24.4688 1.4622 23.7747 2.50872 23.158C2.00188 22.3427 1.66028 21.4633 1.53264 20.5146C0.48135 20.3822 -0.118175 19.785 0.0221732 19.0264C0.183177 18.1539 0.853141 17.7526 1.82075 17.9681C1.85147 17.8929 1.88589 17.8151 1.91555 17.7351C2.27198 16.7657 2.8196 15.9245 3.60714 15.2516C3.7888 15.0965 3.79886 14.9647 3.68076 14.7783C3.50652 14.503 3.33651 14.2245 3.17921 13.9397C3.07753 13.7549 2.95889 13.6919 2.73487 13.7152C1.43201 13.8492 0.390786 13.1318 0.114326 11.9327C-0.12559 10.8908 0.378605 9.81445 1.33191 9.33585C2.29211 8.85355 3.45567 9.08173 4.14894 9.88857C4.18866 9.93463 4.22732 9.98175 4.30518 10.0119C4.28346 9.95686 4.26493 9.90075 4.24004 9.84727C3.80098 8.90173 4.21938 7.79524 5.16845 7.39129C6.13023 6.98205 7.19688 7.42941 7.58509 8.40566C7.64088 8.54578 7.75933 8.62131 7.94046 8.63225C8.01567 8.46072 8.09299 8.28442 8.16926 8.10972C7.63487 7.42994 7.5925 6.87881 8.03738 6.42192C8.47061 5.97721 9.05371 5.98303 9.63629 6.42775C9.96624 6.28745 10.2904 6.1551 10.6076 6.00792C10.6611 5.98303 10.7252 5.88721 10.7156 5.83744C10.6913 5.71144 10.6336 5.58967 10.5758 5.4732C10.5621 5.44567 10.4959 5.44567 10.454 5.43085C9.26768 5.00943 8.69411 3.68958 9.20942 2.54127C9.27456 2.39674 9.25868 2.3168 9.1607 2.20032C8.79208 1.76196 8.74813 1.15789 9.032 0.670297C9.30528 0.20123 9.85396 -0.0666568 10.3762 0.0143446C10.9492 0.103287 11.3883 0.496647 11.4974 1.06048C11.5328 1.24313 11.6351 1.27278 11.7754 1.31037C13.3606 1.7339 13.9246 3.75523 12.7748 4.9009C12.6456 5.02955 12.4967 5.16137 12.3315 5.22702C12.0429 5.34138 12.1181 5.55156 12.1504 5.75115C12.1573 5.7935 12.2452 5.84168 12.3029 5.85385C12.5439 5.90362 12.7875 5.94121 13.0587 5.9878L13.0576 5.98727ZM2.66972 13.063C3.02298 13.009 3.38418 13.037 3.61509 13.4119C3.85553 13.8015 4.10498 14.1869 4.31789 14.5909C4.54086 15.0139 4.4487 15.3877 4.08539 15.7011C3.17392 16.4873 2.5924 17.4678 2.32124 18.6394C2.2937 18.759 2.19678 18.9247 2.10145 18.9491C2.00929 18.9729 1.852 18.8654 1.76726 18.7744C1.48603 18.4742 1.11212 18.4562 0.846785 18.7521C0.638646 18.9845 0.626465 19.3324 0.818186 19.5786C1.01732 19.8343 1.3335 19.8983 1.65021 19.7469C1.9934 19.5828 2.12157 19.6532 2.14487 20.0222C2.21902 21.1896 2.63689 22.2278 3.31374 23.1739C3.39159 23.2824 3.45779 23.456 3.42443 23.5677C3.40006 23.6482 3.20411 23.7102 3.07859 23.7218C2.15758 23.8076 1.59513 24.7711 1.99711 25.5901C2.27304 26.1518 2.90858 26.4383 3.50705 26.2704C4.12987 26.0957 4.50749 25.5218 4.45612 24.859C4.44711 24.7441 4.4826 24.571 4.56045 24.5186C4.63778 24.4667 4.80514 24.508 4.91477 24.553C5.30456 24.7129 5.68165 24.904 6.07304 25.0602C6.40246 25.1915 6.44165 25.3101 6.24039 25.6007C6.18584 25.6796 6.15672 25.8284 6.19538 25.9051C6.23563 25.9856 6.36909 26.0565 6.46654 26.0629C6.67044 26.0761 6.77743 25.875 6.71175 25.6447C6.62119 25.3259 6.73506 25.1952 7.06183 25.2359C7.92298 25.3434 8.76772 25.2809 9.59127 24.9919C9.94771 24.8669 10.0573 24.9802 10.0547 25.3635C10.0526 25.6563 10.0743 25.9713 10.1813 26.2376C10.4969 27.0238 11.429 27.4765 12.2759 27.3017C13.1688 27.1175 13.8155 26.3414 13.825 25.4419C13.8346 24.5355 13.2636 23.8197 12.3702 23.6186C12.3273 23.609 12.2828 23.6043 12.2409 23.591C12.0206 23.5217 11.9565 23.3597 12.0778 23.1622C12.1604 23.0272 12.2605 22.9028 12.3442 22.7683C12.8537 21.9514 13.1254 21.0609 13.1741 20.0995C13.2022 19.5468 13.4755 19.2016 13.9844 19.1031C14.3991 19.0227 14.8202 18.974 15.2386 18.9115C15.5489 18.8654 15.7745 18.9888 15.9742 19.227C16.1357 19.4197 16.3222 19.6093 16.5351 19.7379C17.2554 20.1726 18.1636 19.9216 18.5725 19.1995C18.9814 18.4774 18.7372 17.5715 18.0206 17.1543C17.2945 16.7313 16.4143 16.9685 15.9901 17.7055C15.9069 17.85 15.837 18.0025 15.7671 18.1544C15.639 18.4324 15.425 18.5965 15.1236 18.6447C14.7582 18.7034 14.3933 18.767 14.0263 18.8135C13.4972 18.8808 13.0963 18.6632 12.9268 18.1571C12.5306 16.9738 11.7585 16.0838 10.8052 15.321C10.016 14.6888 10.0155 14.6491 10.4545 13.7438C10.5928 13.4595 10.7935 13.3293 11.1044 13.36C11.2273 13.3722 11.3507 13.3806 11.473 13.3955C11.8744 13.4452 11.9295 13.5373 11.7818 13.9021C11.688 14.1324 11.7786 14.35 12.0074 14.4437C12.2092 14.5263 12.4724 14.44 12.5333 14.2303C12.5704 14.1028 12.5508 13.9344 12.4978 13.8089C12.3855 13.5421 12.4226 13.4209 12.6954 13.3335C12.8712 13.2769 13.047 13.2192 13.2186 13.1519C13.5544 13.0201 13.699 13.1212 13.6799 13.4823C13.663 13.8068 13.8647 14.0625 14.1852 14.1218C14.4897 14.1779 14.7926 13.9948 14.8885 13.6962C14.9987 13.3531 14.8249 13.0429 14.4389 12.8936C14.1984 12.8004 14.1364 12.6421 14.2673 12.4499C14.4155 12.2318 14.5644 12.0142 14.7132 11.7966C14.8901 11.5388 15.1168 11.4758 15.4012 11.6039C15.7894 11.7791 16.1124 12.001 16.0743 12.4986C16.069 12.5669 16.0928 12.6379 16.1093 12.7067C16.2692 13.3732 16.9662 13.7634 17.6075 13.5389C18.0763 13.3748 18.3479 13.0365 18.3998 12.5447C18.4496 12.073 18.2558 11.6965 17.8586 11.4456C17.4386 11.1809 16.9821 11.1708 16.5949 11.4747C16.2226 11.767 15.8964 11.7691 15.5177 11.5255C15.2486 11.3519 15.1644 11.1555 15.2057 10.8357C15.2613 10.4032 15.3005 9.96692 15.3159 9.53121C15.3291 9.15215 15.4764 8.91867 15.8407 8.80485C15.9922 8.75773 16.149 8.72543 16.2952 8.66508C16.7586 8.47396 17.15 8.55125 17.5387 8.88214C17.9735 9.25221 18.6318 9.1945 19.0412 8.80855C19.4474 8.42631 19.53 7.79895 19.2218 7.33464C18.948 6.92223 18.5518 6.73693 18.0625 6.81052C17.5721 6.88411 17.249 7.18164 17.1166 7.65759C17.0054 8.05624 16.7962 8.33207 16.3682 8.41678C16.1882 8.45225 16.0155 8.52584 15.8386 8.58037C15.4319 8.70584 15.1708 8.60949 14.9219 8.27119C14.7243 8.00277 14.5125 7.74442 14.2974 7.48924C14.1221 7.2817 14.1608 7.09641 14.414 7.00058C14.4553 6.98523 14.4992 6.97623 14.5389 6.95823C14.8265 6.8317 14.9775 6.51616 14.8949 6.21598C14.8117 5.91368 14.5146 5.71303 14.2116 5.75538C13.9018 5.7988 13.6789 6.05503 13.6725 6.37692C13.6714 6.42086 13.6804 6.46481 13.6789 6.50875C13.6704 6.73693 13.5269 6.83381 13.3086 6.78087C12.8738 6.67552 12.4374 6.5744 11.9989 6.48545C11.7251 6.42986 11.5535 6.27951 11.5106 6.00474C11.4852 5.83956 11.4698 5.67279 11.4555 5.50603C11.4232 5.12961 11.5858 4.87549 11.9195 4.69336C12.1149 4.58695 12.3135 4.44189 12.4401 4.264C12.7854 3.78011 12.8177 3.24434 12.5481 2.71439C12.2838 2.19503 11.8443 1.91549 11.258 1.88479C10.8809 1.8652 10.8195 1.80273 10.8645 1.44802C10.9105 1.08589 10.704 0.768769 10.3661 0.681944C10.0399 0.597766 9.68978 0.770887 9.56109 1.08007C9.42021 1.41731 9.55049 1.76355 9.88839 1.95361C10.1802 2.1172 10.2051 2.23262 10.0044 2.48621C9.38314 3.27028 9.68025 4.45195 10.6256 4.77701C11.2924 5.00625 11.3464 5.26779 11.3835 5.8798C11.4094 6.3118 11.267 6.46481 10.8661 6.62734C10.5096 6.77187 10.1606 6.94393 9.83013 7.14141C9.49541 7.34153 9.42868 7.34894 9.23061 7.01434C9.10826 6.80787 8.94038 6.69934 8.70417 6.76658C8.49709 6.82534 8.37634 6.98205 8.38534 7.20017C8.39487 7.43206 8.53469 7.557 8.76507 7.60518C9.00976 7.65653 9.07702 7.81801 8.97321 8.03348C8.82492 8.34213 8.67981 8.65184 8.53681 8.96314C8.43989 9.17438 8.28206 9.29456 8.04797 9.30991C7.41402 9.35174 7.19635 9.21621 6.96544 8.63543C6.66779 7.8863 5.72931 7.6523 5.12926 8.18437C4.76859 8.50414 4.63513 8.9102 4.76965 9.37874C4.90682 9.85522 5.23624 10.1443 5.72402 10.2195C6.1922 10.2915 6.58359 10.1215 6.8378 9.72021C7.01363 9.4428 7.23819 9.34274 7.55066 9.39515C7.655 9.41262 7.76092 9.41844 7.86526 9.43433C8.21533 9.48886 8.35833 9.65774 8.40282 10.0114C8.44413 10.3418 8.48756 10.6753 8.57441 10.9961C8.69146 11.4297 8.64485 11.5144 8.19838 11.5112C7.78264 11.5081 7.47334 11.8739 7.56126 12.2646C7.62216 12.5341 7.8393 12.7316 8.11153 12.7644C8.37422 12.7961 8.62525 12.6453 8.74548 12.3837C8.90701 12.0327 9.05213 12.0121 9.32488 12.2932C9.44722 12.4192 9.57327 12.5441 9.70991 12.6543C10.2268 13.0693 10.2639 13.1985 10.0192 13.8243C9.99061 13.8979 9.95883 13.9709 9.92599 14.0424C9.71626 14.4956 9.54202 14.602 9.05266 14.5099C7.82395 14.2785 6.6339 14.3812 5.47404 14.8572C5.08159 15.0181 4.79137 14.9218 4.55516 14.5729C4.33801 14.2521 4.15583 13.9074 3.93127 13.5929C3.60079 13.1292 3.55683 12.7003 3.86083 12.1794C4.30677 11.4154 4.00753 10.4466 3.25866 9.98757C2.51878 9.53386 1.54959 9.71757 1.04115 10.4238C0.63335 10.9908 0.586744 11.6034 0.92305 12.2154C1.29113 12.8856 1.89437 13.1244 2.67078 13.0603L2.66972 13.063ZM9.1268 13.037C8.35886 13.6141 7.53954 13.5278 7.09202 12.8359C6.63443 12.1285 6.91036 11.3948 7.83348 10.8664C7.79799 10.6086 7.76198 10.3502 7.72862 10.1077C7.51995 10.0035 7.40343 10.0802 7.27368 10.2406C6.59947 11.0718 5.33157 11.1163 4.58587 10.347C4.53609 10.2957 4.49849 10.2332 4.45506 10.176L4.3968 10.2147C4.85227 11.0686 4.81891 11.903 4.33272 12.7273C4.2967 12.7877 4.302 12.9073 4.33854 12.9698C4.57422 13.3722 4.81996 13.7687 5.07471 14.1589C5.10596 14.2065 5.22194 14.2367 5.28338 14.2203C5.5037 14.1605 5.71502 14.0689 5.93375 14.0032C6.95749 13.694 7.99554 13.6639 9.04577 13.8423C9.12892 13.8566 9.25656 13.8534 9.30157 13.8031C9.51872 13.5622 9.48959 13.3356 9.2412 13.1313C9.2073 13.1032 9.17341 13.0757 9.1268 13.037ZM15.2142 12.2561C15.1628 12.3387 15.1231 12.4033 15.0855 12.4642C15.2116 12.613 15.3275 12.7506 15.4435 12.8883C15.3641 12.685 15.5262 12.4007 15.2142 12.2561Z" fill="black"/>
<path d="M41.9847 13.3543C48.4667 13.3543 54.9492 13.3543 61.4312 13.3543C61.5371 13.3543 61.6695 13.3214 61.7421 13.3717C61.8739 13.4633 62.0376 13.5936 62.0646 13.7312C62.1022 13.925 61.9396 14.0669 61.7352 14.1055C61.6414 14.123 61.5419 14.1135 61.4449 14.1135C48.454 14.1135 35.4636 14.1135 22.4726 14.1135C22.3847 14.1135 22.2952 14.1203 22.2083 14.1076C21.9933 14.0764 21.8773 13.9398 21.8789 13.7286C21.8805 13.53 21.9944 13.3972 22.1946 13.3638C22.2978 13.3463 22.4054 13.3537 22.5113 13.3537C29.0023 13.3537 35.4932 13.3537 41.9842 13.3537L41.9847 13.3543Z" fill="black"/>
<path d="M52.1276 22.1303H51.1536C51.0948 21.7666 51.0366 21.4055 50.9751 21.0264C50.6176 21.0264 50.2745 21.018 49.9323 21.0349C49.8741 21.0376 49.7856 21.1424 49.7719 21.2117C49.7115 21.5119 49.6739 21.8163 49.6267 22.1287H46.2949V15.9996H47.2514V21.2393H48.8789C49.1586 19.498 49.4382 17.752 49.7205 15.9922H51.1414C51.4672 18.0215 51.7939 20.0597 52.1265 22.1308L52.1276 22.1303ZM49.9212 20.1736H50.8464C50.6987 19.1872 50.5536 18.2173 50.4085 17.2469L50.3587 17.2522C50.2146 18.2152 50.07 19.1782 49.9212 20.1736Z" fill="black"/>
<path d="M28.9092 22.1314H27.9315V16.8716H26.9258V15.9922H32.8813V16.853H31.8888V22.1261H30.927V16.8758H28.9092V22.1308V22.1314Z" fill="black"/>
<path d="M36.6646 22.1322V15.9375C37.36 15.9735 38.0474 15.965 38.7206 16.0582C39.2507 16.1318 39.507 16.5543 39.5955 17.063C39.6257 17.2356 39.6368 17.4135 39.6373 17.5888C39.641 18.5666 39.64 19.5444 39.6379 20.5223C39.6379 20.6541 39.6283 20.7865 39.6124 20.9172C39.5187 21.6939 39.0855 22.1047 38.3038 22.1291C37.7667 22.146 37.2292 22.1322 36.6641 22.1322H36.6646ZM37.6486 16.8703V21.2381C37.727 21.2423 37.7868 21.2471 37.8472 21.2481C38.5813 21.2582 38.6623 21.1777 38.6623 20.4349C38.6623 19.545 38.6623 18.6555 38.6623 17.7656C38.6623 16.892 38.5643 16.8026 37.6486 16.8703Z" fill="black"/>
<path d="M52.4776 16.0127C53.1095 16.0127 53.727 15.9783 54.3382 16.0228C54.898 16.0635 55.2586 16.4421 55.3116 17.0038C55.3508 17.4215 55.3418 17.8482 55.3121 18.2675C55.2867 18.6264 55.0992 18.9155 54.7481 19.1193C55.3571 19.4783 55.3624 20.0628 55.3619 20.6499C55.3619 21.1396 55.3619 21.6293 55.3619 22.1397C55.1548 22.1397 54.8826 22.1328 54.6109 22.1423C54.4393 22.1482 54.4261 22.029 54.4203 21.9179C54.4022 21.5753 54.3948 21.2317 54.3858 20.8887C54.3811 20.6949 54.3895 20.5006 54.3795 20.3074C54.3535 19.797 54.1787 19.6339 53.6724 19.6366C53.6025 19.6366 53.5331 19.6429 53.4357 19.6477V22.1185H52.4766V16.0127H52.4776ZM53.4309 18.7498C53.5993 18.7498 53.7402 18.7599 53.879 18.7477C54.1713 18.7212 54.3429 18.5714 54.3615 18.2818C54.3827 17.9488 54.3779 17.6126 54.3588 17.2791C54.3472 17.07 54.2301 16.9027 54.0061 16.8762C53.8191 16.8539 53.6279 16.8714 53.4309 16.8714V18.7498Z" fill="black"/>
<path d="M40.4551 8.69245C40.4551 9.23828 40.4583 9.78411 40.4551 10.3299C40.4472 11.5481 39.3694 12.2189 38.2598 11.6937C37.7572 11.456 37.5465 11.0182 37.5343 10.4951C37.5126 9.57129 37.5226 8.64639 37.521 7.72202C37.521 7.43137 37.5131 7.14019 37.5337 6.85112C37.5936 6.00511 38.1354 5.52916 39.0108 5.53922C39.8662 5.54875 40.3921 6.03529 40.4503 6.87018C40.4519 6.89665 40.4546 6.92312 40.4546 6.94907C40.4546 7.53037 40.4546 8.11114 40.4546 8.69245H40.4551ZM38.4886 8.68345C38.4886 9.25469 38.4823 9.82594 38.4908 10.3972C38.4961 10.7752 38.6835 10.9663 39.0087 10.9557C39.3238 10.9457 39.487 10.7514 39.488 10.3569C39.4917 9.2494 39.4896 8.14238 39.488 7.03483C39.488 6.96495 39.4827 6.89401 39.4684 6.82571C39.3985 6.49165 39.1025 6.32911 38.7863 6.45618C38.5443 6.55306 38.4902 6.76642 38.4892 6.99618C38.4855 7.55843 38.4881 8.1212 38.4881 8.68345H38.4886Z" fill="black"/>
<path d="M58.9469 8.69945C58.9469 8.15362 58.9427 7.60778 58.948 7.06195C58.9591 5.84852 59.9537 5.1931 61.0839 5.65793C61.6088 5.87393 61.8572 6.31123 61.8677 6.84383C61.8932 8.07579 61.9043 9.30934 61.8651 10.5402C61.8386 11.3709 61.2815 11.8315 60.4314 11.8368C59.5597 11.8421 59.0221 11.3931 58.9681 10.5466C58.9289 9.933 58.9602 9.31517 58.9602 8.69892H58.9469V8.69945ZM60.9197 8.69204C60.9197 8.13826 60.925 7.58449 60.9181 7.03072C60.9134 6.66383 60.7799 6.47377 60.5231 6.43194C60.1465 6.37106 59.9214 6.57435 59.9193 6.99895C59.9145 7.97467 59.9166 8.95039 59.9182 9.92559C59.9182 10.1363 59.9098 10.3491 59.9362 10.5572C59.9659 10.7923 60.1137 10.9341 60.3599 10.9511C60.5919 10.9675 60.7863 10.8997 60.8641 10.6625C60.9044 10.5402 60.916 10.4037 60.9176 10.2734C60.9234 9.74611 60.9197 9.21881 60.9197 8.69151V8.69204Z" fill="black"/>
<path d="M36.1962 22.1281H35.2418C35.1962 21.8311 35.1412 21.5309 35.1073 21.2281C35.0898 21.0745 35.0358 21.0158 34.8769 21.0211C34.5528 21.0317 34.2281 21.0242 33.8923 21.0242C33.8325 21.4012 33.7769 21.7559 33.7186 22.1239H32.832C32.9597 21.316 33.0841 20.5187 33.2118 19.7213C33.3998 18.5492 33.5936 17.3776 33.7747 16.2044C33.8012 16.0334 33.8526 15.9614 34.0369 15.9693C34.3711 15.9836 34.7063 15.9789 35.0411 15.9709C35.1793 15.9678 35.2423 16.0053 35.2656 16.1536C35.5754 18.1167 35.8916 20.0787 36.2052 22.0413C36.2089 22.0651 36.2004 22.091 36.1967 22.127L36.1962 22.1281ZM34.5035 17.2659L34.4458 17.2669C34.3028 18.231 34.1603 19.1946 34.0157 20.1692H34.9357C34.79 19.1903 34.6465 18.2278 34.5035 17.2654V17.2659Z" fill="black"/>
<path d="M23.9771 19.834H24.9347C24.8854 20.3555 24.8976 20.8622 24.779 21.3365C24.6058 22.0258 23.886 22.3419 23.0614 22.1714C22.4571 22.0465 22.0673 21.623 22.0324 20.9659C21.9948 20.2634 22.0038 19.5582 22.0022 18.8541C22.0011 18.2998 21.9905 17.7439 22.0276 17.1912C22.0848 16.3499 22.6033 15.9026 23.4634 15.9063C24.2997 15.9094 24.8108 16.3663 24.8791 17.1922C24.9018 17.4691 24.8828 17.7497 24.8828 18.0425H23.9819C23.9819 17.8254 24.0057 17.6062 23.9745 17.3955C23.9491 17.2219 23.9019 17.0149 23.787 16.8989C23.5286 16.6363 23.0609 16.8163 22.9963 17.1896C22.965 17.3696 22.9756 17.5581 22.9751 17.7428C22.974 18.7376 22.9719 19.7324 22.9778 20.7272C22.9799 21.0867 23.1064 21.2603 23.3617 21.3027C23.7277 21.363 23.9496 21.1915 23.9734 20.7981C23.992 20.4921 23.9771 20.1835 23.9771 19.8346V19.834Z" fill="black"/>
<path d="M23.1398 9.45388V11.76H22.1992V5.58594C22.8374 5.61664 23.4809 5.60394 24.1106 5.69129C24.6254 5.76276 24.9352 6.15612 24.9839 6.66066C25.0374 7.21761 25.0496 7.7878 24.9945 8.34369C24.9257 9.03882 24.467 9.41418 23.7669 9.4523C23.5741 9.46288 23.3803 9.45388 23.1403 9.45388H23.1398ZM23.1536 8.57399C23.3321 8.57399 23.4809 8.5761 23.6302 8.57399C23.8823 8.57028 24.0391 8.43634 24.0481 8.19069C24.064 7.7518 24.0735 7.30973 24.0365 6.87349C24.0259 6.7459 23.8702 6.5696 23.7436 6.52725C23.5662 6.46742 23.3533 6.51242 23.1536 6.51242V8.57452V8.57399Z" fill="black"/>
<path d="M31.9362 7.27143H31.0109C30.9998 7.11684 30.9982 6.9686 30.9765 6.82301C30.9373 6.56094 30.7858 6.43124 30.5321 6.42488C30.2689 6.418 30.119 6.52865 30.0581 6.78807C29.966 7.17931 30.0793 7.52926 30.3346 7.81885C30.5899 8.10844 30.8775 8.37103 31.1566 8.63945C31.6708 9.13393 31.9642 9.7147 31.9224 10.448C31.8557 11.6227 30.6582 12.267 29.6615 11.6301C29.4358 11.4856 29.2409 11.2161 29.1477 10.9615C29.0339 10.6507 29.0423 10.2955 28.9941 9.93335H29.9586C29.9586 10.1065 29.9496 10.2791 29.9607 10.4511C29.9819 10.7868 30.1466 10.9451 30.4559 10.944C30.7525 10.943 30.9124 10.7905 30.9452 10.4702C30.9855 10.0747 30.8404 9.74012 30.574 9.46164C30.2943 9.16887 29.9898 8.89993 29.7059 8.61139C29.1355 8.03168 28.9449 7.33708 29.1223 6.54771C29.2722 5.87905 29.7563 5.53228 30.5057 5.53916C31.245 5.54552 31.7296 5.91188 31.8631 6.58265C31.9054 6.79654 31.9107 7.01731 31.9367 7.27143H31.9362Z" fill="black"/>
<path d="M48.5895 8.19746V9.071H47.2893V10.8758H48.9141V11.7578H46.3105V5.625H48.921V6.49166H47.2866V8.19693H48.5895V8.19746Z" fill="black"/>
<path d="M59.2031 15.9922H61.812V16.8477H60.1681V18.5705H61.4593V19.4493H60.1628V21.2446H61.8078V22.1239H59.2037V15.9922H59.2031Z" fill="black"/>
<path d="M40.2486 15.9844H42.8495V16.85H41.2114V18.5637H42.5037V19.4426H41.2141V21.2463H42.8543V22.123H40.248V15.9844H40.2486Z" fill="black"/>
<path d="M35.1611 11.7572H34.1866V6.49524H33.1719V5.63281H36.1478V6.48094H35.1611V11.7572Z" fill="black"/>
<path d="M55.7129 16.8645V16H58.6745V16.854H57.6942V22.1217H56.7133V16.864H55.7129V16.8645Z" fill="black"/>
<path d="M56.5785 11.7583H55.6056V6.50066H54.6035V5.625H57.572V6.47843H56.5779V11.7583H56.5785Z" fill="black"/>
<path d="M53.4693 5.63281V6.49365H52.471V11.7587H51.5034V6.50636H50.5156V5.63334H53.4698L53.4693 5.63281Z" fill="black"/>
<path d="M42.3379 5.625H43.2737V10.8753H44.8642V11.7552H42.3379V5.625Z" fill="black"/>
<path d="M43.4609 15.9844H44.3973V21.2421H45.9851V22.1219H43.4609V15.9844Z" fill="black"/>
<path d="M26.5195 5.625H27.4596V11.7488H26.5195V5.625Z" fill="black"/>
<path d="M25.4824 15.9844H26.4077V22.1188H25.4824V15.9844Z" fill="black"/>
<path d="M57.0814 2.99992C57.0814 2.79397 57.0814 2.58803 57.0814 2.38208C57.0814 1.72189 57.0867 1.06118 57.0782 0.400989C57.0755 0.200339 57.1354 0.118808 57.3483 0.11722C57.5723 0.115102 57.6068 0.21728 57.6057 0.407872C57.5993 1.52601 57.6057 2.64414 57.5977 3.76281C57.5972 3.86075 57.548 4.02752 57.4897 4.04287C57.3393 4.08258 57.1629 4.11488 57.0454 3.92746C56.807 3.54734 56.5549 3.17568 56.3087 2.79979C55.9803 2.29949 55.6525 1.79813 55.3241 1.29836C55.3019 1.26447 55.2738 1.23483 55.2065 1.15065C55.2065 1.34495 55.2065 1.47307 55.2065 1.60066C55.2065 2.34026 55.2018 3.07986 55.2092 3.81946C55.2113 4.02858 55.1107 4.06564 54.9311 4.06776C54.7442 4.0704 54.687 3.99787 54.6875 3.81734C54.6928 2.68173 54.6875 1.5456 54.6954 0.409989C54.696 0.315752 54.767 0.145279 54.8109 0.143161C54.946 0.137867 55.1022 0.168044 55.2155 0.239516C55.3103 0.29934 55.3575 0.435931 55.4247 0.539168C55.9141 1.292 56.4035 2.04484 56.8928 2.79768C56.9389 2.86862 56.9855 2.93903 57.0316 3.00944L57.0814 2.99992Z" fill="black"/>
<path d="M32.9328 2.98794C32.9328 2.12816 32.9402 1.26838 32.928 0.4086C32.9248 0.168772 33.0133 0.0988887 33.2378 0.113713C33.393 0.123772 33.4566 0.178302 33.456 0.337128C33.4523 1.49868 33.456 2.66076 33.4486 3.8223C33.4486 3.89907 33.3702 4.04043 33.33 4.0399C33.1933 4.03831 33.0313 4.02084 32.9275 3.94407C32.8147 3.86042 32.7553 3.70424 32.6733 3.5793C32.1765 2.8217 31.6797 2.06357 31.1829 1.30597C31.1564 1.26573 31.1252 1.22814 31.0526 1.13126C31.0526 1.60033 31.0526 2.0011 31.0526 2.40187C31.0526 2.86829 31.0473 3.33471 31.0547 3.80113C31.0579 3.99489 30.9859 4.0616 30.791 4.06372C30.5845 4.06584 30.5405 3.97848 30.541 3.79319C30.5468 2.66658 30.541 1.5405 30.5484 0.413894C30.549 0.31701 30.5982 0.15289 30.6559 0.137536C30.8079 0.0967711 30.9795 0.074006 31.0971 0.260891C31.4006 0.745311 31.7189 1.22073 32.0308 1.69986C32.3136 2.13398 32.5959 2.56864 32.8787 3.00276L32.9328 2.98847V2.98794Z" fill="black"/>
<path d="M24.4605 25.7343C24.7994 25.9614 24.98 26.2573 24.9663 26.6496C24.9456 27.2405 24.5277 27.6545 23.907 27.6757C23.4055 27.6931 22.9034 27.6772 22.4013 27.6815C22.2568 27.6831 22.1948 27.6307 22.1953 27.4814C22.1985 26.3817 22.1985 25.2827 22.1953 24.1831C22.1953 24.0391 22.2456 23.975 22.395 23.9766C22.9145 23.9829 23.4341 23.9697 23.9531 23.9898C24.4155 24.0078 24.7332 24.2561 24.8487 24.6415C24.9763 25.0688 24.8614 25.4103 24.4605 25.7337V25.7343ZM22.7133 27.259C23.1084 27.259 23.4696 27.2738 23.8292 27.2548C24.1909 27.2357 24.4329 26.9879 24.4573 26.6565C24.4795 26.3484 24.3 26.0466 23.996 26.0064C23.575 25.9513 23.1454 25.9593 22.7138 25.9402V27.259H22.7133ZM22.7122 25.5278C23.12 25.5278 23.5051 25.5479 23.8874 25.5214C24.1983 25.4997 24.3726 25.2753 24.3784 24.9714C24.3842 24.6733 24.2253 24.4472 23.924 24.425C23.5262 24.3954 23.1243 24.4176 22.7122 24.4176V25.5278Z" fill="black"/>
<path d="M35.1674 2.08817C35.1674 1.52486 35.1737 0.962088 35.1642 0.399314C35.161 0.201311 35.2124 0.109721 35.4301 0.117662C35.9311 0.136721 36.4347 0.113956 36.9347 0.149957C37.6497 0.20184 38.0723 0.573493 38.1406 1.28239C38.1952 1.84675 38.183 2.42647 38.1216 2.99083C38.0543 3.60972 37.7026 3.94643 37.0883 4.00732C36.5121 4.06449 35.9284 4.04596 35.348 4.05867C35.1642 4.06291 35.1679 3.93108 35.1679 3.80296C35.1679 3.23119 35.1679 2.65941 35.1679 2.08764L35.1674 2.08817ZM35.7102 3.60549C36.145 3.58484 36.565 3.58378 36.9808 3.53984C37.3128 3.50437 37.5538 3.28413 37.5777 2.95853C37.6179 2.40105 37.6195 1.83669 37.5861 1.27868C37.566 0.946206 37.3351 0.696319 36.9993 0.646554C36.5788 0.584611 36.1493 0.584611 35.7102 0.556552V3.60549Z" fill="black"/>
<path d="M29.1073 2.09865C29.0766 2.42213 29.0734 2.7509 29.0094 3.06749C28.8965 3.62233 28.5417 3.96645 27.9808 4.06545C27.7494 4.10622 27.5058 4.12157 27.2722 4.09986C26.508 4.02786 26.0546 3.57097 26.0001 2.79802C25.9678 2.34325 25.9656 1.88265 25.9969 1.42735C26.0562 0.561216 26.6356 0.0614428 27.5328 0.0625017C28.4236 0.0635605 28.9982 0.574981 29.065 1.43741C29.0819 1.65606 29.0676 1.87683 29.0676 2.09707L29.1079 2.09918L29.1073 2.09865ZM26.4942 2.09548C26.5212 2.37448 26.5202 2.66884 26.5832 2.9489C26.687 3.41056 27.0397 3.64721 27.5423 3.64403C28.0206 3.64086 28.4178 3.39573 28.467 2.94626C28.5285 2.38454 28.5306 1.80588 28.4691 1.24417C28.4188 0.783043 28.01 0.527333 27.5275 0.528392C27.0439 0.529451 26.6817 0.78569 26.58 1.24629C26.5202 1.51788 26.5217 1.80324 26.4947 2.09601L26.4942 2.09548Z" fill="black"/>
<path d="M50.13 2.08347C50.13 1.8987 50.1225 1.71341 50.131 1.52917C50.1734 0.597917 50.7771 0.0399073 51.7114 0.0632018C52.6139 0.0859669 53.1445 0.572505 53.2107 1.46617C53.2383 1.84258 53.242 2.22324 53.2208 2.59966C53.1604 3.6855 52.5831 4.18421 51.498 4.11009C50.6998 4.05556 50.2184 3.59603 50.1427 2.79554C50.1204 2.55995 50.1395 2.32065 50.1395 2.08347H50.13ZM52.7245 2.08771C52.6912 1.79758 52.6854 1.49476 52.616 1.20728C52.5095 0.765743 52.1409 0.52221 51.6664 0.528033C51.1929 0.533857 50.7888 0.785861 50.7401 1.2311C50.6786 1.79335 50.6776 2.37148 50.7353 2.93425C50.7819 3.3869 51.1738 3.63732 51.6505 3.64367C52.1552 3.65056 52.5095 3.41867 52.6192 2.96019C52.6859 2.68066 52.6907 2.38683 52.724 2.08824L52.7245 2.08771Z" fill="black"/>
<path d="M59.7386 3.58704C60.3614 3.58704 60.9514 3.59022 61.5419 3.58493C61.7125 3.58334 61.8306 3.60028 61.83 3.81999C61.83 4.0344 61.7188 4.06299 61.5451 4.06193C60.8487 4.05717 60.1517 4.05558 59.4552 4.06299C59.2725 4.06511 59.2031 4.00264 59.2037 3.81946C59.2079 2.66585 59.2084 1.51171 59.2031 0.358107C59.2021 0.170692 59.2757 0.115632 59.4552 0.117221C60.1427 0.124633 60.8306 0.123044 61.5186 0.11828C61.686 0.117221 61.7803 0.151633 61.7824 0.350166C61.7845 0.550287 61.6913 0.582581 61.5229 0.580464C60.9345 0.57464 60.346 0.578346 59.7407 0.578346V1.83678C60.3031 1.83678 60.8555 1.84154 61.4074 1.83413C61.5859 1.83148 61.6653 1.88813 61.6621 2.07502C61.6595 2.25449 61.571 2.29896 61.4122 2.29738C60.9535 2.29261 60.4954 2.29579 60.0368 2.29579C59.9425 2.29579 59.8482 2.29579 59.7391 2.29579V3.58704H59.7386Z" fill="black"/>
<path d="M40.9631 3.15406C40.7163 3.15406 40.469 3.14135 40.2238 3.16147C40.1433 3.16782 40.0363 3.24088 39.9992 3.31289C39.9071 3.4913 39.8515 3.68877 39.7742 3.87513C39.7069 4.03872 39.4167 4.14619 39.2975 4.03396C39.2477 3.98737 39.252 3.84072 39.2827 3.75866C39.6248 2.84488 39.9765 1.9348 40.3255 1.02367C40.4166 0.785431 40.5177 0.550898 40.5977 0.308953C40.6597 0.120479 40.7968 0.111479 40.9541 0.118891C41.1151 0.126832 41.2867 0.0760077 41.3704 0.297306C41.8126 1.46468 42.266 2.62729 42.7066 3.79519C42.7326 3.86401 42.6913 4.03078 42.6643 4.03449C42.5096 4.05672 42.3179 4.13825 42.2215 3.93231C42.1325 3.74172 42.0552 3.54371 41.9917 3.34306C41.9435 3.19059 41.8582 3.14188 41.7025 3.14982C41.4567 3.162 41.2094 3.153 40.9626 3.153L40.9631 3.15406ZM41.7496 2.67493C41.4949 2.0068 41.2534 1.37362 40.9864 0.673724C40.7185 1.37838 40.4754 2.01686 40.2249 2.67493H41.7502H41.7496Z" fill="black"/>
<path d="M44.4471 3.58227C45.1239 3.58227 45.7494 3.58598 46.3749 3.57963C46.5502 3.57804 46.6582 3.60292 46.6561 3.81892C46.6545 4.03069 46.5512 4.06352 46.3738 4.06193C45.6244 4.05663 44.875 4.06352 44.1256 4.05557C44.0038 4.05452 43.784 4.01481 43.7787 3.97298C43.7591 3.81098 43.7575 3.60715 43.8412 3.47904C44.1446 3.01526 44.4857 2.57637 44.8125 2.12795C45.1747 1.63136 45.5375 1.13476 45.9337 0.591575C45.4766 0.591575 45.0672 0.591575 44.6578 0.591575C44.464 0.591575 44.2696 0.58681 44.0758 0.593163C43.9084 0.598457 43.7872 0.583633 43.7872 0.360218C43.7872 0.146332 43.8899 0.116155 44.0673 0.117214C44.7902 0.123037 45.5132 0.119331 46.2361 0.119861C46.5862 0.119861 46.7053 0.326335 46.5359 0.642928C46.4988 0.712283 46.4479 0.774754 46.4019 0.839344C45.7907 1.69065 45.1795 2.54196 44.5683 3.39327C44.5339 3.44092 44.5043 3.49174 44.4455 3.58174L44.4471 3.58227Z" fill="black"/>
<path d="M60.2137 23.9844C60.4377 23.9304 60.5315 24.0484 60.603 24.2385C60.9965 25.2846 61.4016 26.326 61.793 27.3727C61.8248 27.4579 61.793 27.6538 61.7776 27.6554C61.6246 27.6697 61.435 27.7623 61.3481 27.5352C61.3418 27.5188 61.3301 27.5034 61.328 27.4865C61.2427 26.8877 60.8699 26.731 60.326 26.8321C60.2661 26.8433 60.2015 26.8417 60.1411 26.8321C59.5808 26.7474 59.1476 26.8433 59.0522 27.5167C59.0189 27.7528 58.7848 27.702 58.6391 27.6644C58.4464 27.6141 58.5682 27.4627 58.6063 27.3616C58.9993 26.3249 59.4029 25.292 59.79 24.2533C59.871 24.0352 59.9828 23.9267 60.2137 23.9838V23.9844ZM60.916 26.3721C60.676 25.7452 60.4499 25.1523 60.1989 24.4953C59.9478 25.1544 59.7201 25.7521 59.4839 26.3721H60.916Z" fill="black"/>
<path d="M36.5571 24.4123V25.5834C36.7732 25.5834 36.9888 25.5834 37.2049 25.5834C37.5221 25.5834 37.8399 25.5876 38.1571 25.5818C38.3276 25.5786 38.3637 25.6697 38.3642 25.8153C38.3642 25.9624 38.3027 26.0175 38.1566 26.0159C37.7244 26.0106 37.2922 26.0143 36.8601 26.0143C36.7653 26.0143 36.6705 26.0143 36.5587 26.0143V27.2203C36.6525 27.2256 36.7451 27.2346 36.8378 27.2346C37.323 27.2362 37.8081 27.2394 38.2932 27.233C38.4648 27.2309 38.53 27.2997 38.5273 27.4686C38.5247 27.6301 38.4532 27.6825 38.299 27.6815C37.6201 27.6767 36.9411 27.6772 36.2616 27.6815C36.1154 27.6825 36.0561 27.629 36.0566 27.4808C36.0598 26.3796 36.0598 25.2784 36.0566 24.1772C36.0566 24.0263 36.1181 23.976 36.2616 23.9766C36.9321 23.9798 37.6021 23.9808 38.2726 23.9766C38.4383 23.9755 38.4849 24.0507 38.4849 24.2026C38.4849 24.3646 38.4118 24.4171 38.2577 24.4155C37.7816 24.4102 37.3055 24.4133 36.8288 24.4133C36.743 24.4133 36.6572 24.4133 36.5566 24.4133L36.5571 24.4123Z" fill="black"/>
<path d="M22.7694 0.590498V1.9204C23.3196 1.9204 23.8551 1.92517 24.3905 1.91776C24.5764 1.91511 24.6675 1.96646 24.6601 2.17082C24.6537 2.34076 24.5891 2.40588 24.4212 2.40376C23.9721 2.39847 23.523 2.40218 23.0739 2.40218C22.9791 2.40218 22.8843 2.40218 22.7545 2.40218C22.7545 2.88077 22.7508 3.33501 22.7566 3.78926C22.7588 3.97191 22.7042 4.06085 22.5008 4.06403C22.2943 4.0672 22.2239 4.0005 22.2249 3.79138C22.2329 2.65683 22.2286 1.52175 22.2286 0.3872C22.2286 0.360729 22.218 0.324728 22.2313 0.309905C22.2906 0.243198 22.3552 0.128843 22.4198 0.127784C23.1327 0.114548 23.8461 0.12196 24.5595 0.117196C24.7469 0.116137 24.7724 0.219903 24.7729 0.371847C24.7734 0.528026 24.7125 0.594204 24.5536 0.592615C24.0606 0.587851 23.5675 0.591027 23.0744 0.591027C22.9791 0.591027 22.8843 0.591027 22.7694 0.591027V0.590498Z" fill="black"/>
<path d="M51.7107 27.2253C52.2848 27.2253 52.8133 27.2284 53.3419 27.2232C53.5077 27.2216 53.611 27.2523 53.611 27.4519C53.611 27.6515 53.5098 27.6806 53.343 27.679C52.717 27.6732 52.0904 27.6705 51.4644 27.68C51.27 27.6832 51.1996 27.6218 51.2012 27.4238C51.2081 26.3581 51.2081 25.2918 51.2012 24.2261C51.2001 24.027 51.2732 23.9715 51.4649 23.9688C51.6747 23.9662 51.7139 24.0588 51.7128 24.2409C51.707 25.1309 51.7102 26.0203 51.7102 26.9103C51.7102 27.005 51.7102 27.0998 51.7102 27.2247L51.7107 27.2253Z" fill="black"/>
<path d="M44.207 27.2315C44.7737 27.2315 45.3023 27.2352 45.8303 27.2293C46.0066 27.2272 46.1131 27.2585 46.1094 27.4729C46.1057 27.6878 45.9802 27.6846 45.8292 27.6841C45.2122 27.6815 44.5952 27.6778 43.9782 27.6862C43.7934 27.6889 43.7055 27.646 43.7071 27.4395C43.7145 26.3653 43.7139 25.2911 43.7076 24.2169C43.7065 24.0279 43.7801 23.9755 43.9586 23.9766C44.1334 23.9776 44.2123 24.0216 44.2107 24.2148C44.2033 25.1127 44.2075 26.0111 44.2075 26.909C44.2075 27.0043 44.2075 27.0991 44.2075 27.2315H44.207Z" fill="black"/>
<path d="M48.1074 2.05328C48.1074 1.48998 48.1148 0.926677 48.1037 0.363374C48.0994 0.152664 48.1932 0.116664 48.3748 0.117193C48.5591 0.117723 48.646 0.162723 48.6449 0.369727C48.6375 1.5138 48.6375 2.65841 48.6449 3.80249C48.6465 4.02273 48.548 4.06297 48.3552 4.0672C48.1466 4.07197 48.1031 3.97985 48.1058 3.79667C48.1132 3.21589 48.1084 2.63459 48.1084 2.05381L48.1074 2.05328Z" fill="black"/>
<path d="M30.1836 25.8174C30.1836 25.2901 30.191 24.7628 30.1799 24.2355C30.1756 24.0375 30.2445 23.9782 30.4383 23.9766C30.638 23.975 30.6978 24.0496 30.6968 24.2392C30.6915 25.3028 30.6915 26.3659 30.6968 27.4295C30.6978 27.6222 30.6285 27.6889 30.4325 27.6905C30.2307 27.6915 30.1762 27.6164 30.1799 27.4258C30.1899 26.89 30.1836 26.3537 30.183 25.8174H30.1836Z" fill="black"/>
<path d="M12.8269 25.5012C12.8259 25.9835 12.4329 26.3747 11.9504 26.3726C11.4674 26.371 11.0765 25.9782 11.0781 25.497C11.0797 25.0147 11.4727 24.6239 11.9546 24.625C12.4377 24.6261 12.828 25.0184 12.8269 25.5012Z" fill="black"/>
</g>
<defs>
<clipPath id="clip0_1062_18488">
<rect width="62.0699" height="28" fill="white"/>
</clipPath>
</defs>
</svg>
